<svg width="221" height="199" viewBox="0 0 221 199" fill="none" xmlns="http://www.w3.org/2000/svg">
<circle opacity="0.05" cx="115" cy="107" r="92" fill="#605BFF"/>
<path fill-rule="evenodd" clip-rule="evenodd" d="M115.407 73.2114C117.646 95.0444 104.814 104.15 101.177 106.269C101.207 106.494 101.222 106.735 101.222 106.975V138.124L107.203 141.415H138.652C138.713 141.415 138.788 141.415 138.848 141.43C146.09 142.422 146.376 133.857 146.376 132.79C146.331 132.249 146.631 131.708 147.157 131.483C151.695 129.529 149.772 123.399 149.591 122.873C149.351 122.257 149.637 121.551 150.238 121.25C156.128 118.395 152.416 113.256 151.936 112.61C151.545 112.189 151.485 111.543 151.8 111.032C162.469 94.6688 129.141 98.7108 127.007 98.9813C126.842 99.0113 126.662 99.0263 126.481 98.9813C125.775 98.846 125.324 98.1699 125.459 97.4636C130.433 72.2648 118.968 72.5352 115.377 73.1814L115.407 73.2114Z" fill="#605BFF"/>
<path fill-rule="evenodd" clip-rule="evenodd" d="M99.0884 138.5V106.975C99.0884 106.224 98.7879 105.548 98.292 105.067C97.7962 104.571 97.12 104.271 96.3837 104.271H79.7047C78.9534 104.271 78.2772 104.571 77.7964 105.067C77.3005 105.563 77 106.239 77 106.975V138.5C77 139.251 77.3005 139.928 77.7964 140.408C78.2922 140.904 78.9684 141.205 79.7047 141.205H96.3837C97.135 141.205 97.8112 140.904 98.292 140.408C98.6978 140.003 98.9682 139.477 99.0584 138.891C99.0584 138.801 99.0584 138.695 99.0884 138.605C99.0884 138.575 99.0884 138.53 99.0884 138.5Z" fill="#605BFF"/>
<path opacity="0.1" d="M138.767 7.04824C137.906 6.81275 137.049 6.82225 136.068 6.83312C135.823 6.83584 135.578 6.83855 135.333 6.84127C136.546 5.72515 137.759 4.60903 138.602 3.25198C138.843 2.88175 138.349 2.51967 138.107 2.7674C136.648 3.88623 135.314 5.12622 133.98 6.3662C133.962 4.77365 133.944 3.18109 133.927 1.58854C133.918 0.853518 132.816 0.865744 132.824 1.60077C132.841 3.19332 132.86 4.90838 132.878 6.50093C131.763 5.41062 130.649 4.44281 129.535 3.475C129.041 3.11293 128.435 3.73224 128.93 4.09432C129.798 5.06484 130.667 6.03536 131.658 7.00453C130.433 7.01811 129.207 7.03169 127.983 7.16778C127.493 7.17322 127.501 7.90824 127.991 7.90281C129.463 8.00901 130.811 7.99407 132.159 7.97912C131.067 8.97138 129.976 10.0861 129.008 11.1995C128.524 11.695 129.266 12.2994 129.752 11.9264C130.844 10.9342 131.937 10.0644 132.907 9.07351C132.922 10.4211 132.938 11.8911 133.198 13.2359C133.201 13.4809 133.691 13.4755 133.811 13.2291C134.042 12.0014 134.027 10.6538 134.012 9.30629C134.382 9.54723 134.632 9.91202 135.002 10.153C135.744 10.7573 136.486 11.3617 137.227 11.8436C137.475 12.0858 137.838 11.7143 137.59 11.472C136.969 10.7437 136.471 10.0141 135.85 9.28592C135.477 8.79998 134.983 8.4379 134.611 8.07446C135.224 8.06767 135.714 8.06224 136.327 8.05544C137.307 8.04458 138.042 8.03643 139.02 7.78055C139.141 7.65669 139.136 7.16667 138.767 7.04824Z" fill="#030229"/>
<path opacity="0.1" d="M12.0114 68.8696C11.1509 68.6341 10.2931 68.6437 9.31282 68.6545C9.06773 68.6572 8.82265 68.66 8.57757 68.6627C9.79076 67.5465 11.004 66.4304 11.8468 65.0734C12.0878 64.7031 11.5936 64.3411 11.3512 64.5888C9.76903 65.5865 8.43601 66.949 7.10164 68.189C7.08398 66.5964 7.06633 65.0038 7.04868 63.4113C7.04053 62.6763 5.93766 62.6885 5.9458 63.4235C5.96346 65.0161 5.98247 66.7311 6.00012 68.3237C4.88503 67.2334 3.77129 66.2656 2.65755 65.2978C2.16331 64.9357 1.5574 65.555 2.05164 65.9171C2.92029 66.8876 3.78894 67.8581 4.78014 68.8273C3.55473 68.8409 2.32931 68.8544 1.10525 68.9905C0.615088 68.996 0.623236 69.731 1.1134 69.7256C2.58526 69.8318 3.93321 69.8168 5.28117 69.8019C4.18916 70.7941 3.09851 71.9089 2.1304 73.0223C1.64566 73.5177 2.3877 74.1221 2.8738 73.7492C3.96581 72.7569 5.05917 71.8872 6.02864 70.8963C6.04358 72.2438 6.05987 73.7139 6.31989 75.0587C6.32261 75.3037 6.81278 75.2983 6.9326 75.0519C7.16411 73.8241 7.14917 72.4766 7.13423 71.129C7.50457 71.37 7.75373 71.7348 8.12407 71.9757C8.86611 72.5801 9.60815 73.1844 10.3488 73.6663C10.5966 73.9086 10.9602 73.537 10.7124 73.2947C10.0915 72.5665 9.59321 71.8369 8.97235 71.1087C8.5993 70.6227 8.10506 70.2607 7.73336 69.8972C8.34606 69.8904 8.83623 69.885 9.44894 69.8782C10.4293 69.8673 11.1645 69.8592 12.1421 69.6033C12.2633 69.4794 12.2579 68.9894 12.0114 68.8696Z" fill="#030229"/>
<path d="M32.6421 28.3324C31.286 27.6123 30.0524 26.8909 29.0585 25.6767C27.9407 24.3414 27.4329 22.7543 26.6799 21.1699C26.6799 21.1699 26.6786 21.0474 26.5561 21.0488L26.4335 21.0501C26.4335 21.0501 26.4335 21.0501 26.3123 21.174C26.3123 21.174 26.3123 21.174 26.3137 21.2965C25.9827 24.6082 24.0479 26.9575 21.6201 29.0672C21.4989 29.1911 21.5016 29.4361 21.6255 29.5572C24.335 30.7524 26.2098 34.0396 27.0975 36.7252C27.2228 36.9688 27.5904 36.9648 27.7102 36.7184C28.1827 35.1204 28.534 33.6463 29.3755 32.1667C30.217 30.6872 31.3077 29.5724 32.6461 28.6999C32.7673 28.5761 32.7646 28.3311 32.6421 28.3324Z" fill="#605BFF"/>
<path d="M219.895 65.0818C218.539 64.3618 217.305 63.6403 216.434 62.4248C215.316 61.0895 214.808 59.5023 214.055 57.9179C214.055 57.9179 214.054 57.7954 213.932 57.7968L213.809 57.7982C213.809 57.7982 213.809 57.7982 213.688 57.922C213.688 57.922 213.688 57.922 213.689 58.0445C213.358 61.3562 211.423 63.7055 208.996 65.8153C208.874 65.9391 208.877 66.1841 209.001 66.3053C211.711 67.5004 213.585 70.7877 214.473 73.4732C214.598 73.7169 214.966 73.7128 215.086 73.4664C215.558 71.8685 215.91 70.3943 216.751 68.9148C217.593 67.4352 218.683 66.3205 220.022 65.448C220.022 65.448 220.019 65.203 219.895 65.0818Z" fill="#605BFF"/>
<path d="M130.095 34.9575C129.109 34.4784 128.368 33.9965 127.624 33.1472C126.877 32.1753 126.498 31.0768 125.873 29.9811C125.873 29.9811 125.873 29.9811 125.75 29.9824L125.628 29.9838C125.628 29.9838 125.628 29.9838 125.629 30.1063C125.41 32.4366 124.079 34.0441 122.38 35.5331C122.259 35.657 122.26 35.7795 122.383 35.7782C124.353 36.6139 125.604 38.9279 126.237 40.7587C126.24 41.0037 126.608 40.9996 126.605 40.7546C126.838 39.6494 127.193 38.5428 127.795 37.5559C128.397 36.5691 129.124 35.8259 130.097 35.2026C130.22 35.2012 130.217 34.9562 130.095 34.9575Z" fill="#605BFF"/>
<path d="M98.8385 56.8054C97.1135 55.9669 95.756 55.1243 94.6368 53.6665C93.2698 51.9664 92.6368 50.1356 91.7573 48.185C91.7573 48.185 91.7559 48.0625 91.6334 48.0639L91.5108 48.0653C91.5108 48.0653 91.3883 48.0666 91.3896 48.1891L91.391 48.3116C90.9443 52.2372 88.6486 55.2031 85.7348 57.6858C85.6136 57.8096 85.6176 58.1771 85.8627 58.1744C89.1876 59.6078 91.4368 63.5035 92.4538 66.8002C92.5804 67.1664 93.0706 67.1609 93.1891 66.7921C93.6589 64.9491 94.2512 63.1047 95.2125 61.3788C96.1739 59.6529 97.5069 58.2904 99.2116 57.2913C98.9665 57.294 99.085 56.9252 98.8385 56.8054Z" fill="#605BFF"/>
<path d="M69.4518 25.9507C67.7091 23.5196 65.9677 21.211 63.7402 19.2754C62.5039 18.309 61.2677 17.3425 59.9116 16.6225C59.1722 16.2631 58.4343 16.0262 57.6949 15.6669C57.326 15.5484 56.957 15.43 56.5866 15.1891C56.2177 15.0707 55.9699 14.8284 55.6036 14.9549C55.3585 14.9577 55.2373 15.0815 55.3626 15.3252C55.4919 15.9363 56.2312 16.2957 56.7255 16.6578C57.3436 17.141 57.9604 17.5017 58.5785 17.9849C59.8135 18.8289 61.0497 19.7953 62.1635 20.7631C64.2684 22.7001 66.0071 24.7637 67.6259 27.0736C68.3734 28.168 70.2006 27.1676 69.4518 25.9507Z" fill="#FF8F6B"/>
<path d="M68.5794 75.1039C67.5733 72.7872 65.2314 71.5879 62.8923 70.6337C60.5531 69.6795 57.8477 68.8519 55.4009 69.2465C53.0754 69.5174 50.5183 71.0159 49.6849 73.2305C49.0899 74.8298 48.503 77.1642 49.9871 78.3729C50.7305 79.0998 52.0798 79.2074 52.8069 78.4642C54.0201 77.3481 52.8982 75.6453 51.9083 74.7986C47.8237 71.1683 40.9682 71.8569 36.4573 73.9897C33.6524 75.246 31.2246 77.3557 29.7854 80.1896C28.5844 82.4083 27.2799 86.3434 28.8987 88.6533C29.1479 89.0181 29.6381 89.0126 29.8791 88.6424C31.2067 86.7899 31.1768 84.0948 32.1354 82.1239C33.0926 80.0305 34.6667 78.2977 36.4926 77.1748C40.2642 74.6826 46.7453 73.3856 50.6965 76.0372C51.1908 76.3993 52.5482 77.2419 51.8211 77.9851C51.2152 78.6044 50.2281 78.0027 49.855 77.5168C48.3546 74.838 51.8758 71.8585 54.0747 71.2215C56.2737 70.5846 58.8538 71.1686 60.9465 72.003C63.283 72.7122 65.9938 74.0299 67.3635 75.975C67.9789 76.2132 68.8313 75.7137 68.5794 75.1039Z" fill="#EF37FF"/>
<path d="M176.16 55.6425C176.283 55.6411 176.281 55.5186 176.159 55.52C176.036 55.5213 176.038 55.6438 176.16 55.6425Z" fill="#3F3937"/>
<path d="M177.24 53.5479C179.28 49.6047 183.523 45.392 188.318 46.8091C190.039 47.2801 192.263 48.8482 192.042 51.0559C191.936 52.5273 190.209 51.5663 189.59 50.9606C188.102 49.3844 188.806 46.5586 189.275 44.7156C189.983 42.2574 191.551 39.9122 193.618 38.419C195.318 37.0525 197.64 36.4141 199.72 36.146C202.046 35.8752 204.137 36.5871 206.348 37.0527C207.207 37.1657 207.809 36.1789 207.19 35.5732C205.578 33.8758 202.757 33.662 200.554 33.9314C198.228 34.2023 195.784 34.842 193.838 36.2112C189.945 38.8273 187.066 44.3726 187.485 49.0236C187.753 51.1035 190.492 54.9937 192.796 52.7628C193.888 51.7706 193.5 49.9371 192.996 48.7175C192.118 46.8894 190.144 45.6861 188.3 45.2165C182.77 43.8076 178.532 48.5103 176.501 53.1885C176.382 53.5574 176.999 53.9181 177.24 53.5479Z" fill="#EF37FF"/>
<path d="M71.2259 48.4877C69.4831 46.0567 67.257 44.2435 64.67 43.047C63.3153 42.4495 61.9619 41.9744 60.6112 41.7443C59.3831 41.5129 57.5436 41.4108 56.4475 42.0355C56.2038 42.1607 56.2079 42.5282 56.4557 42.7705C57.4428 43.3722 58.9147 43.4784 60.0203 43.7112C61.3723 44.0637 62.4792 44.419 63.7114 45.018C66.0519 46.0947 68.2753 47.6628 69.8901 49.6052C70.511 50.3334 71.8481 49.3385 71.2259 48.4877Z" fill="#FF8F6B"/>
<path d="M43.2547 57.0066C44.3549 56.7494 45.5789 56.6133 46.6818 56.6011C47.2945 56.5943 47.9072 56.5875 48.5199 56.5807C48.8875 56.5766 49.2552 56.5726 49.4989 56.4473C49.7426 56.3221 49.9877 56.3194 50.2314 56.1942C50.4751 56.069 50.4711 55.7014 50.2246 55.5817C49.9782 55.4619 49.7317 55.3421 49.6078 55.2209C49.3614 55.1012 48.8712 55.1066 48.6248 54.9868C48.0121 54.9936 47.3994 55.0004 46.6655 55.131C45.4414 55.2671 44.2187 55.5257 42.9974 55.9068C42.2635 56.0375 42.5208 57.1373 43.2547 57.0066Z" fill="#FF8F6B"/>
<path d="M173.802 86.1759C177.211 84.0553 180.868 82.2995 184.777 81.1535C186.61 80.6431 188.565 80.1313 190.523 79.8646C191.624 79.7299 192.603 79.5965 193.705 79.4618C194.563 79.4523 195.42 79.4427 196.151 79.0671C196.395 78.9419 196.391 78.5744 196.145 78.4546C195.283 78.0966 194.426 78.2286 193.446 78.2394C192.343 78.2517 191.364 78.385 190.261 78.3973C188.18 78.5429 186.1 78.9335 184.023 79.4466C179.867 80.4728 176.211 82.3511 172.81 85.0842C172.325 85.5797 173.071 86.5516 173.802 86.1759Z" fill="#FF8F6B"/>
<path d="M166.999 80.4931C169.906 77.3979 173.681 75.2732 177.335 73.1499C179.162 72.1495 181.11 71.0252 183.061 70.1459C184.159 69.6437 185.134 69.1428 186.109 68.6419C187.084 68.141 188.184 67.8838 189.157 67.2604C189.401 67.1352 189.397 66.7677 189.028 66.6492C188.045 66.4151 186.946 66.7948 185.967 66.9282C184.743 67.0643 183.644 67.444 182.547 67.9463C180.352 68.9508 178.158 70.0777 176.089 71.3259C172.069 73.5758 168.542 75.9428 165.764 79.6491C165.28 80.2671 166.391 80.9899 166.999 80.4931Z" fill="#FF8F6B"/>
<path d="M146.87 22.5197C146.743 22.1535 146.739 21.786 146.611 21.2973C146.608 21.0523 146.484 20.9312 146.483 20.8087C146.482 20.6862 146.48 20.5637 146.356 20.4425C146.355 20.32 146.232 20.3214 146.231 20.1989C146.107 20.0777 145.983 19.9566 145.861 19.9579C145.738 19.9593 145.617 20.0832 145.496 20.207C145.497 20.3295 145.375 20.3309 145.376 20.4534C145.377 20.5759 145.379 20.6984 145.38 20.8209C145.383 21.0659 145.386 21.3109 145.511 21.5546C145.515 21.9221 145.641 22.2882 145.768 22.6544L145.767 22.5319L145.768 22.6544C145.769 22.7769 145.895 23.0205 146.019 23.1417C146.143 23.2628 146.389 23.3826 146.51 23.2588C146.633 23.2574 146.876 23.1322 146.875 23.0097C146.875 23.0097 146.872 22.7647 146.87 22.5197Z" fill="#030229"/>
<path d="M151.967 40.1061C152.054 36.9197 153.003 34.0912 154.074 31.1389C154.67 29.662 155.268 28.3077 155.988 26.952C156.708 25.5963 157.431 24.4856 157.783 23.0115C157.78 22.7665 157.531 22.4017 157.289 22.6494C156.681 23.1462 156.318 23.5178 155.834 24.1358C155.474 24.7524 155.114 25.4915 154.753 26.1081C154.034 27.5863 153.315 29.0645 152.72 30.6638C151.65 33.6161 151.074 36.9305 150.987 40.117C151.116 40.7281 151.974 40.7186 151.967 40.1061Z" fill="#FF8F6B"/>
<path d="M162.277 19.4083C162.397 19.1619 162.518 19.038 162.638 18.7917C162.638 18.7917 162.639 18.9142 162.517 18.9155C162.517 18.9155 162.516 18.793 162.638 18.7917L162.759 18.6678C162.88 18.5439 162.88 18.5439 163.002 18.4201C163.243 18.0499 163.608 17.8008 163.849 17.4305C164.09 17.0603 164.455 16.8112 164.696 16.441C164.815 16.1946 165.059 16.0694 165.179 15.823C165.178 15.7005 165.3 15.6992 165.299 15.5767C165.42 15.4528 165.419 15.3303 165.417 15.2078C165.537 14.9614 165.288 14.5967 164.92 14.6007C164.798 14.6021 164.675 14.6034 164.43 14.6062C164.308 14.6075 164.309 14.73 164.186 14.7314C164.186 14.7314 164.186 14.7314 164.064 14.7327C164.186 14.7314 164.186 14.7314 164.064 14.7327C163.819 14.7355 163.576 14.9832 163.333 15.1084C162.845 15.3588 162.482 15.7304 162.118 16.102C161.755 16.4736 161.391 16.8452 161.151 17.3379C160.91 17.7082 160.548 18.2022 160.43 18.5711C160.189 18.9413 160.318 19.5525 160.811 19.7921C161.547 19.9064 162.036 19.7785 162.277 19.4083Z" fill="#FF8F6B"/>
<path d="M158.242 42.3642C158.599 41.3801 159.08 40.5172 159.437 39.5331C159.793 38.549 160.152 37.6874 160.631 36.7019C161.111 35.8389 161.468 34.8548 161.949 33.9919C162.43 33.1289 163.155 32.2632 163.267 31.2818C163.263 30.9143 162.894 30.7959 162.649 30.7986C161.671 31.0545 161.193 32.1624 160.589 32.9043C159.863 33.7699 159.384 34.7554 158.904 35.7409C158.425 36.7263 158.068 37.7104 157.713 38.8171C157.596 39.3084 157.356 39.8012 157.363 40.4137C157.246 40.9051 157.253 41.5176 157.258 42.0076C157.142 42.6215 158.003 42.857 158.242 42.3642Z" fill="#FF8F6B"/>
<path d="M164.957 28.9351C165.195 28.3199 165.557 27.8258 165.919 27.3317C166.401 26.5912 166.637 25.731 167.12 25.113C167.604 24.4951 168.214 24.2433 168.821 23.7465C169.428 23.2497 170.036 22.7529 170.642 22.1336C172.945 19.9027 175.62 17.9127 178.42 16.2889C179.152 15.9133 179.883 15.5376 180.614 15.1619C181.101 14.9115 181.831 14.4133 181.457 13.8049C180.83 12.5866 178.397 14.2064 177.666 14.582C174.865 16.2058 172.563 18.5592 170.013 20.6703C169.283 21.1685 168.677 21.7878 168.071 22.4071C167.465 23.0264 166.984 23.8894 166.378 24.5087C165.773 25.128 165.041 25.5036 164.435 26.123C163.951 26.6184 163.591 27.3575 163.354 28.0952C162.875 29.0807 164.356 30.0444 164.957 28.9351Z" fill="#FF8F6B"/>
<path opacity="0.5" d="M106.944 36.0716C107.423 35.0861 107.532 33.8597 107.397 32.7585C107.384 31.5335 107.248 30.3098 106.99 29.21C106.988 28.965 106.497 28.9704 106.5 29.2154C106.39 30.3193 106.402 31.4219 106.416 32.6469C106.426 33.6269 106.439 34.7295 106.081 35.5911C105.842 36.2063 106.706 36.6868 106.944 36.0716Z" fill="#EF37FF"/>
<g opacity="0.5">
<path d="M107.012 20.1434C107 19.0409 107.11 17.937 106.977 16.9583C106.842 15.8571 106.464 14.8812 105.84 13.908C105.715 13.6643 105.226 13.7922 105.353 14.1584C105.865 16.113 105.888 18.1956 105.911 20.2782C105.795 20.892 107.02 20.8785 107.012 20.1434Z" fill="#EF37FF"/>
</g>
<path opacity="0.5" d="M101.504 9.66765C101.248 8.69034 100.87 7.71438 100.37 6.86229C100.121 6.49749 99.9929 6.00883 99.7437 5.64404C99.4945 5.27924 99.2413 4.54694 98.7511 4.55237C98.5061 4.55509 98.261 4.5578 98.1412 4.80417C97.9015 5.2969 98.2746 5.78284 98.5251 6.27014C98.7742 6.63494 99.0247 7.12224 99.1514 7.48839C99.651 8.34048 100.028 9.19394 100.283 10.0487C100.536 10.7811 101.757 10.4 101.504 9.66765Z" fill="#EF37FF"/>
<path opacity="0.5" d="M107.122 7.89034C107.356 6.90759 107.466 5.8037 107.577 4.69981C107.571 4.20979 107.565 3.59727 107.559 3.10726C107.554 2.61724 107.547 2.00472 107.296 1.51742C107.17 1.15127 106.68 1.1567 106.561 1.52557C106.321 2.0183 106.328 2.63082 106.334 3.12084C106.339 3.61086 106.345 4.10087 106.35 4.59089C106.361 5.57092 106.249 6.55231 106.137 7.5337C106.14 7.77871 106.267 8.14486 106.512 8.14214C106.76 8.38443 107.126 8.25785 107.122 7.89034Z" fill="#EF37FF"/>
<path opacity="0.5" d="M111.818 11.3915C112.049 10.1637 112.527 9.05575 113.129 8.06892C113.731 7.0821 114.579 6.21506 115.304 5.22688C115.423 4.98051 115.297 4.61436 115.053 4.73958C113.709 5.12203 112.741 6.23544 112.141 7.34477C111.418 8.45545 111.065 9.80707 110.833 11.0348C110.597 11.7726 111.703 12.1279 111.818 11.3915Z" fill="#EF37FF"/>
<path d="M192.871 59.5005C192.992 59.3766 192.991 59.2541 193.112 59.1302C193.232 58.8839 193.352 58.6375 193.349 58.3925C193.346 58.1475 193.345 58.025 193.465 57.7786L193.463 57.6561C193.462 57.5336 193.46 57.4111 193.459 57.2886C193.456 57.0436 193.454 56.7986 193.328 56.5549C193.326 56.3099 193.202 56.1888 193.078 56.0676C192.827 55.5803 192.333 55.2182 191.719 55.1025C191.966 55.2223 192.212 55.3421 192.46 55.5844C192.212 55.3421 191.966 55.2223 191.72 55.225C191.474 55.1053 191.229 55.108 191.108 55.2318C190.863 55.2345 190.741 55.3584 190.498 55.4836C190.254 55.6089 190.012 55.8566 189.892 56.1029C190.257 55.8539 190.499 55.6061 190.864 55.3571C190.741 55.3584 190.62 55.4823 190.498 55.4836C190.254 55.6089 190.01 55.7341 189.889 55.8579C189.768 55.9818 189.647 56.1057 189.526 56.2295C189.527 56.352 189.404 56.3534 189.406 56.4759C189.407 56.5984 189.286 56.7223 189.287 56.8448C189.408 56.7209 189.406 56.4759 189.527 56.352C189.528 56.4745 189.406 56.4759 189.407 56.5984C189.408 56.7209 189.286 56.7223 189.287 56.8448C189.166 56.9686 189.169 57.2136 189.048 57.3375C188.928 57.5839 188.808 57.8302 188.812 58.1977C188.692 58.4441 188.819 58.8103 188.822 59.0553C188.947 59.2989 189.072 59.5426 189.197 59.7862C189.323 60.0299 189.57 60.2722 189.817 60.3919C189.941 60.5131 190.186 60.5104 190.31 60.6315C190.679 60.7499 191.169 60.7445 191.535 60.6179C191.656 60.4941 191.901 60.4914 192.023 60.3675C192.51 60.117 192.751 59.7468 192.871 59.5005Z" fill="#FF8F6B"/>
<path d="M187.988 17.0405C187.986 16.918 187.864 16.9194 187.862 16.7969C187.739 16.6757 187.615 16.5546 187.613 16.4321C187.613 16.4321 187.489 16.3109 187.367 16.3123C187.12 16.1925 187.119 16.07 186.75 15.9516C186.628 15.9529 186.381 15.8331 186.259 15.8345C186.136 15.8359 185.891 15.8386 185.891 15.8386L185.525 15.9652C185.281 16.0904 185.16 16.2142 185.04 16.4606C184.919 16.5845 184.919 16.5845 184.92 16.707C184.921 16.8295 184.799 16.8308 184.8 16.9533C184.68 17.1997 184.562 17.5686 184.566 17.9361C184.57 18.3036 184.695 18.5472 184.822 18.9134C185.196 19.5218 185.813 19.8826 186.426 19.8758C187.039 19.869 187.77 19.4933 188.008 18.8781C188.128 18.6317 188.246 18.2628 188.242 17.8953C188.24 17.6503 188.114 17.4067 187.988 17.0405Z" fill="#FF8F6B"/>
<path d="M97.838 32.7421C96.821 29.4454 97.2718 25.8874 97.8479 22.573C97.8452 22.3279 97.5987 22.2082 97.4789 22.4545C96.2901 25.7757 95.9646 29.5774 96.983 32.9967C96.9898 33.6092 97.9674 33.3533 97.838 32.7421Z" fill="#030229"/>
</svg>
