<svg width="661" height="399" viewBox="0 0 661 399" fill="none" xmlns="http://www.w3.org/2000/svg">
<path opacity="0.1" d="M321.526 89.689C348.755 85.9009 374.523 75.4579 396.744 59.691C430.024 36.0407 499.505 -4.19564 565.856 15.8713C657.453 43.4122 657.87 123.373 633.98 166.783C610.194 210.193 441.083 337.352 221.895 317.183C25.7641 299.061 -12.4189 91.8391 92.1149 54.2647C182.982 21.8095 213.862 104.637 321.526 89.689Z" fill="#605BFF"/>
<path d="M629.912 208.657C625.821 208.657 622.505 205.403 622.505 201.388C622.505 197.373 625.821 194.119 629.912 194.119C634.003 194.119 637.319 197.373 637.319 201.388C637.319 205.403 634.003 208.657 629.912 208.657Z" fill="#FFCDB3"/>
<path opacity="0.2" d="M323.206 399C204.399 399 108.087 395.608 108.087 391.424C108.087 387.24 204.399 383.848 323.206 383.848C442.012 383.848 538.324 387.24 538.324 391.424C538.324 395.608 442.012 399 323.206 399Z" fill="#605BFF"/>
<path d="M369.829 97.5724L369.516 99.2105L369.099 100.951L368.264 104.534C367.743 106.992 367.117 109.346 366.491 111.804C365.865 114.261 365.239 116.616 364.508 118.97C363.883 121.325 363.152 123.68 362.422 126.035C361.692 128.389 360.857 130.642 360.023 132.894C359.188 135.147 358.353 137.399 357.414 139.447C356.475 141.597 355.537 143.644 354.493 145.692C353.45 147.637 352.407 149.583 351.259 151.221C350.112 152.961 348.964 154.497 347.921 155.726C346.773 156.954 345.73 157.978 344.791 158.49C344.374 158.797 343.956 159.002 343.643 159.104C343.33 159.207 343.122 159.309 342.809 159.411H342.705L342.287 159.514L341.348 159.719L339.47 160.026L335.61 160.64L331.75 161.254L327.89 161.869C325.282 162.278 322.778 162.688 320.17 162.995L316.31 163.609C315.058 163.814 313.702 164.019 312.45 164.223L310.468 164.53L308.486 164.838C307.86 164.94 307.234 165.042 306.504 165.145C305.878 165.247 305.147 165.35 304.626 165.452L304.104 165.554C298.053 166.681 293.985 172.414 295.132 178.454C296.071 183.369 300.244 186.952 305.147 187.362L307.234 187.567C307.964 187.669 308.59 187.669 309.32 187.771C310.677 187.874 312.137 187.976 313.493 188.078L315.58 188.181L317.666 188.283C319.023 188.283 320.379 188.386 321.839 188.386C323.196 188.386 324.656 188.386 326.012 188.386C327.369 188.386 328.829 188.386 330.186 188.386C333.002 188.386 335.715 188.283 338.532 188.181C339.888 188.078 341.348 188.078 342.705 187.976L344.791 187.874L345.834 187.771H346.356L347.295 187.669C349.694 187.362 352.094 186.747 354.285 185.928C356.475 185.109 358.458 184.086 360.335 183.062C362.213 181.936 363.883 180.809 365.343 179.478C366.908 178.25 368.264 176.919 369.516 175.69C370.768 174.359 371.916 173.028 373.063 171.697C374.106 170.366 375.15 169.035 376.089 167.704C377.966 165.042 379.636 162.38 381.096 159.616C382.557 156.954 383.913 154.19 385.061 151.528C386.312 148.866 387.356 146.102 388.399 143.44C389.442 140.778 390.381 138.013 391.32 135.351C392.155 132.69 392.989 129.925 393.824 127.263C394.554 124.601 395.284 121.837 395.91 119.175C396.536 116.513 397.162 113.749 397.788 110.984C398.101 109.654 398.31 108.22 398.623 106.889L399.04 104.842L399.249 103.818L399.457 102.589C400.709 94.6033 395.076 87.1294 386.938 85.9008C379.01 84.6722 371.603 89.8937 370.038 97.47L369.829 97.5724Z" fill="#FFAA8C"/>
<path d="M401.753 106.173C399.77 112.827 391.737 135.454 384.643 146.716L353.45 132.28C353.45 132.28 364.091 108.118 369.62 92.8628C371.394 87.9485 375.358 83.9556 380.47 82.2151C383.913 81.0889 387.982 80.7817 392.572 82.9317C401.544 87.1294 402.483 96.8558 402.378 101.668C402.483 103.306 402.17 104.739 401.753 106.173Z" fill="#605BFF"/>
<path d="M283.446 343.597L275.205 356.702L259.556 349.945L266.65 335.816L283.446 343.597Z" fill="#FFAA8C"/>
<path d="M209.954 356.985L269.106 382.683C269.941 382.068 270.671 381.045 271.297 379.816C273.905 375.106 275.783 366.506 277.244 361.182C277.452 360.568 277.557 359.954 277.765 359.442C278.078 358.52 278.287 357.804 278.495 357.394C280.269 353.401 276.409 352.48 276.409 352.48C267.854 355.654 264.933 344.084 259.717 345.211C259.717 345.211 257.422 345.62 250.849 347.77C244.277 349.92 234.992 349.101 226.959 348.999C216.526 348.794 212.458 351.354 210.788 353.606C209.641 355.347 209.954 356.985 209.954 356.985Z" fill="#EF37FF"/>
<path d="M210.002 357.419L269.155 383.117C269.989 382.503 270.72 381.479 271.346 380.25L210.837 353.938C209.689 355.781 210.002 357.419 210.002 357.419Z" fill="#605BFF"/>
<path d="M263.209 380.557L264.982 381.274C264.148 378.51 263.835 374.824 266.025 370.626C268.947 364.995 274.163 362.64 277.501 361.719C277.71 361.105 277.814 360.49 278.023 359.978C274.476 360.798 268.112 363.152 264.669 369.91C262.478 374.005 262.478 377.588 263.209 380.557Z" fill="#605BFF"/>
<path d="M250.376 352.095C250.794 352.3 251.315 352.198 251.628 351.788C251.941 351.379 251.941 350.662 251.419 350.355L248.081 347.795C247.664 347.488 246.933 347.488 246.621 348C246.308 348.409 246.308 349.126 246.829 349.433L250.168 351.993C250.272 351.993 250.376 351.993 250.376 352.095Z" fill="#605BFF"/>
<path d="M255.489 350.661C255.906 350.866 256.427 350.764 256.74 350.354C257.053 349.945 257.053 349.228 256.532 348.921L253.193 346.361C252.776 346.054 252.046 346.054 251.733 346.566C251.42 346.976 251.42 347.692 251.941 348L255.28 350.559C255.28 350.559 255.384 350.559 255.489 350.661Z" fill="#605BFF"/>
<path d="M245.785 352.607C246.203 352.812 246.724 352.71 247.037 352.3C247.35 351.89 247.35 351.174 246.829 350.867L243.49 348.307C243.073 348 242.343 348 242.03 348.512C241.717 348.921 241.717 349.638 242.238 349.945L245.577 352.505C245.577 352.505 245.681 352.505 245.785 352.607Z" fill="#605BFF"/>
<path d="M241.196 353.017C241.613 353.221 242.135 353.119 242.448 352.709C242.761 352.3 242.761 351.583 242.239 351.276L238.901 348.717C238.483 348.409 237.753 348.409 237.44 348.921C237.127 349.331 237.127 350.048 237.649 350.355L240.987 352.914C240.987 352.914 241.091 352.914 241.196 353.017Z" fill="#605BFF"/>
<path d="M236.292 353.119C236.71 353.324 237.231 353.221 237.544 352.812C237.857 352.402 237.857 351.686 237.336 351.378L233.997 348.819C233.58 348.512 232.85 348.512 232.537 349.024C232.224 349.433 232.224 350.15 232.745 350.457L236.084 353.017C236.084 353.017 236.188 353.119 236.292 353.119Z" fill="#605BFF"/>
<path d="M231.18 352.812C231.597 353.016 232.119 352.914 232.432 352.505C232.745 352.095 232.745 351.378 232.223 351.071L228.885 348.512C228.467 348.204 227.737 348.204 227.424 348.716C227.111 349.126 227.111 349.843 227.633 350.15L230.971 352.709C230.971 352.709 231.076 352.812 231.18 352.812Z" fill="#605BFF"/>
<path d="M320.169 216.438C325.699 211.114 368.994 199.238 397.787 207.122C401.126 213.367 405.299 229.134 394.971 243.774C357.101 249.815 336.027 262.306 336.027 262.306C336.027 262.306 322.569 292.713 314.64 303.873C306.712 315.033 288.35 350.559 288.35 350.559L260.808 338.99C260.913 338.99 305.251 230.874 320.169 216.438Z" fill="#1A060A"/>
<path d="M291.375 343.904C291.271 343.904 291.167 343.904 291.062 343.802L264.147 332.847C263.729 332.642 263.521 332.233 263.729 331.823C263.938 331.414 264.355 331.209 264.772 331.414L291.688 342.369C292.106 342.573 292.314 342.983 292.106 343.393C292.001 343.7 291.688 343.904 291.375 343.904Z" fill="#35252F"/>
<path d="M286.889 341.652C286.785 341.652 286.68 341.652 286.576 341.549C286.159 341.344 285.95 340.935 286.159 340.525C286.263 340.423 291.897 326.601 305.042 306.944C318.082 287.491 331.749 254.524 331.957 254.217C332.166 253.808 332.583 253.603 333.001 253.808C333.418 254.012 333.627 254.422 333.418 254.831C333.314 255.138 319.543 288.208 306.398 307.763C293.357 327.216 287.724 340.935 287.724 341.037C287.411 341.447 287.202 341.652 286.889 341.652Z" fill="#35252F"/>
<path d="M353.032 345.85L350.946 361.207H333.732L334.462 345.44L353.032 345.85Z" fill="#FFAA8C"/>
<path d="M291.432 387.29H356.218C356.74 386.471 356.948 385.242 357.053 383.809C357.47 378.382 355.696 369.885 354.862 364.458C354.757 363.844 354.653 363.23 354.549 362.718C354.444 361.796 354.34 361.08 354.34 360.466C354.34 356.063 350.376 356.78 350.376 356.78C343.803 363.127 336.396 353.606 332.015 356.78C332.015 356.78 330.137 358.111 325.025 362.616C319.913 367.12 311.15 370.192 303.742 373.161C294.145 377.154 291.432 381.044 290.91 383.706C290.493 385.959 291.432 387.29 291.432 387.29Z" fill="#EF37FF"/>
<path d="M291.481 387.724H356.267C356.788 386.905 356.997 385.676 357.101 384.243H290.959C290.542 386.393 291.481 387.724 291.481 387.724Z" fill="#605BFF"/>
<path d="M349.693 387.724H351.571C349.693 385.574 347.815 382.298 348.128 377.588C348.441 371.343 352.301 367.043 354.91 364.893C354.805 364.278 354.701 363.664 354.597 363.152C351.676 365.302 346.877 370.012 346.459 377.588C346.355 381.99 347.92 385.369 349.693 387.724Z" fill="#605BFF"/>
<path d="M326.324 366.735C326.846 366.735 327.263 366.428 327.368 365.916C327.472 365.404 327.159 364.79 326.637 364.688L322.569 363.664C322.047 363.562 321.421 363.869 321.317 364.381C321.213 364.893 321.526 365.507 322.047 365.609L326.116 366.633C326.116 366.735 326.22 366.735 326.324 366.735Z" fill="#605BFF"/>
<path d="M330.29 363.459C330.811 363.459 331.229 363.152 331.333 362.64C331.437 362.128 331.124 361.514 330.603 361.411L326.534 360.387C326.012 360.285 325.386 360.592 325.282 361.104C325.178 361.616 325.491 362.23 326.012 362.333L330.081 363.357C330.185 363.459 330.185 363.459 330.29 363.459Z" fill="#605BFF"/>
<path d="M322.258 369.089C322.779 369.089 323.197 368.782 323.301 368.27C323.405 367.758 323.092 367.144 322.571 367.042L318.502 366.018C317.98 365.916 317.354 366.223 317.25 366.735C317.146 367.247 317.459 367.861 317.98 367.963L322.049 368.987C322.049 369.089 322.153 369.089 322.258 369.089Z" fill="#605BFF"/>
<path d="M318.187 371.343C318.709 371.343 319.126 371.035 319.231 370.524C319.335 370.012 319.022 369.397 318.5 369.295L314.432 368.271C313.91 368.169 313.284 368.476 313.18 368.988C313.075 369.5 313.388 370.114 313.91 370.216L317.979 371.24C317.979 371.24 318.083 371.343 318.187 371.343Z" fill="#605BFF"/>
<path d="M313.805 373.39C314.327 373.39 314.744 373.083 314.849 372.571C314.953 372.059 314.64 371.445 314.118 371.343L310.05 370.319C309.528 370.216 308.902 370.524 308.798 371.036C308.694 371.547 309.007 372.162 309.528 372.264L313.597 373.288C313.597 373.39 313.701 373.39 313.805 373.39Z" fill="#605BFF"/>
<path d="M309.007 375.131C309.529 375.131 309.946 374.823 310.05 374.311C310.154 373.8 309.841 373.185 309.32 373.083L305.251 372.059C304.73 371.957 304.104 372.264 303.999 372.776C303.895 373.288 304.208 373.902 304.73 374.004L308.798 375.028C308.798 375.131 308.903 375.131 309.007 375.131Z" fill="#605BFF"/>
<path d="M370.977 91.7367C370.872 97.982 377.862 109.346 382.348 133.816C382.452 134.43 382.557 135.044 382.661 135.659C382.87 136.99 383.078 138.423 383.391 139.856C383.496 140.471 383.6 140.983 383.6 141.597C383.809 143.03 384.017 144.464 384.226 145.999C384.33 146.511 384.33 147.023 384.434 147.535C384.643 149.48 384.852 151.426 385.06 153.473C385.269 155.316 385.373 157.057 385.478 159.002C385.582 159.923 385.582 160.947 385.686 161.869C385.686 162.892 385.791 163.916 385.791 164.94C386.312 175.895 386.938 201.593 385.999 215.927C406.134 228.417 448.073 229.134 476.345 208.453C478.014 198.624 475.406 165.247 474.571 155.316C474.363 153.371 474.154 151.323 473.945 149.378C472.798 139.856 470.816 130.437 468.416 120.711C468.312 120.199 468.103 119.687 467.999 119.073C466.017 110.985 463.826 102.692 461.426 93.8867C456.836 76.3793 448.699 66.5506 437.953 66.9601C432.946 67.0625 428.877 66.4482 425.747 65.7316C425.33 65.6292 425.017 65.5268 424.704 65.4244C420.948 64.4006 418.757 63.172 418.757 63.172L395.389 67.5744C393.928 70.8507 391.737 73.1031 389.233 74.8436C388.92 75.0484 388.712 75.2531 388.399 75.4579C380.887 80.4746 371.081 81.4985 370.977 91.7367Z" fill="#605BFF"/>
<path d="M383.391 139.856C383.495 140.47 383.6 140.982 383.6 141.597C383.808 143.03 384.017 144.463 384.226 145.999C384.33 146.511 384.33 147.023 384.434 147.535C384.643 149.48 384.852 151.425 385.06 153.473C385.269 155.316 385.373 157.056 385.477 159.002C385.582 159.923 385.582 160.947 385.686 161.868L392.05 169.752L399.457 149.992L385.999 132.894L383.391 139.856Z" fill="#605BFF"/>
<path d="M420.113 146.921L412.497 166.578L399.352 149.992L406.864 129.618L420.113 146.921Z" fill="#605BFF"/>
<path d="M440.978 144.054L433.154 163.711L420.113 146.921L427.833 126.649L440.978 144.054Z" fill="#AD2F24"/>
<path d="M461.738 141.494L453.705 160.946L440.873 144.053L448.802 123.884L461.738 141.494Z" fill="#605BFF"/>
<path d="M466.748 201.798C467.061 201.798 467.27 201.593 467.27 201.286C469.565 146.614 459.028 106.275 458.924 105.865C458.819 105.558 458.611 105.456 458.298 105.456C457.985 105.558 457.88 105.763 457.88 106.07C457.985 106.48 468.522 146.614 466.226 201.183C466.226 201.491 466.435 201.798 466.748 201.798Z" fill="white"/>
<path d="M406.447 87.4368C405.583 87.4368 404.882 86.7493 404.882 85.9011C404.882 85.0529 405.583 84.3654 406.447 84.3654C407.311 84.3654 408.012 85.0529 408.012 85.9011C408.012 86.7493 407.311 87.4368 406.447 87.4368Z" fill="white"/>
<path d="M406.864 95.0128C405.999 95.0128 405.299 94.3252 405.299 93.477C405.299 92.6289 405.999 91.9413 406.864 91.9413C407.728 91.9413 408.428 92.6289 408.428 93.477C408.428 94.3252 407.728 95.0128 406.864 95.0128Z" fill="white"/>
<path d="M405.82 105.046C409.68 103.818 413.436 101.565 417.087 98.1866C423.347 92.4531 426.998 85.3888 426.998 85.3888C427.102 85.0816 426.998 84.7745 426.789 84.6721C426.581 84.4673 426.268 84.5697 426.059 84.8768C426.059 84.9792 422.408 91.8389 416.357 97.4699C408.22 104.944 399.769 106.889 391.215 103.306C390.902 103.203 390.693 103.306 390.589 103.613C390.484 103.92 390.589 104.227 390.902 104.33C395.805 106.48 400.813 106.787 405.716 105.251C405.716 105.046 405.716 105.046 405.82 105.046Z" fill="white"/>
<path d="M404.674 78.9391C410.203 77.9153 415.628 72.0795 415.941 71.7723C416.149 71.5675 416.149 71.2604 415.941 70.9532C415.732 70.6461 415.419 70.7485 415.21 70.9532C415.106 71.0556 405.925 80.782 400.083 77.1986C399.875 76.9938 399.562 77.0962 399.353 77.4033C399.249 77.7105 399.353 78.0176 399.562 78.12C401.126 79.0415 402.9 79.2462 404.674 78.9391Z" fill="white"/>
<path d="M415.002 193.505C417.088 193.096 419.175 192.584 421.261 191.765C426.373 189.922 431.485 186.85 436.493 182.755C445.047 175.793 450.368 168.012 450.368 167.91C450.577 167.705 450.472 167.295 450.264 167.193C450.055 166.988 449.742 167.091 449.533 167.295C449.533 167.398 444.213 175.076 435.867 181.936C428.147 188.284 416.045 195.246 402.483 192.379C402.17 192.277 401.961 192.481 401.857 192.789C401.857 193.096 401.961 193.403 402.274 193.403C406.343 194.324 410.62 194.324 415.002 193.505Z" fill="white"/>
<path d="M412.08 35.4258C412.392 38.0877 416.253 36.7567 418.13 34.9139C418.965 34.0948 418.548 32.2519 418.443 29.9995C418.339 27.2352 417.713 29.0781 419.695 25.0851C421.782 20.7851 418.339 14.4374 415.522 14.8469C415.522 14.8469 417.922 8.39682 412.08 4.81343C406.863 1.63958 403.525 5.22296 403.525 5.22296C403.525 5.22296 401.647 -0.100924 396.848 0.00145796C392.049 0.10384 389.232 5.0182 389.232 5.0182C389.232 5.0182 385.372 1.43481 380.26 4.4039C375.148 7.37299 377.652 11.1611 377.652 11.1611C377.652 11.1611 372.019 11.4683 370.662 16.1779C369.411 20.1708 372.54 22.5256 372.54 22.5256C372.54 22.5256 370.454 24.6756 371.81 28.9757C372.958 32.6614 375.774 32.4567 376.296 35.0162C376.609 36.4496 377.235 38.0877 377.757 39.3163C378.174 40.2378 379.426 41.6711 380.365 41.5687C381.617 41.364 382.034 39.1115 381.617 37.883C380.991 35.8353 380.26 32.8662 381.199 30.8186C382.764 27.5423 380.782 24.1637 383.912 22.5256C387.041 20.8875 399.248 24.3685 406.237 18.2255C406.237 18.2255 406.655 22.8327 409.68 23.6518C412.705 24.4709 412.184 28.1566 412.184 31.2281C411.975 32.4567 412.08 35.4258 412.08 35.4258Z" fill="#030229"/>
<path d="M394.345 63.6835L395.493 69.5193C396.327 69.9288 397.058 70.3383 397.892 70.5431C409.368 74.7408 419.07 65.1168 419.07 65.1168L415.21 44.9475L396.953 61.4311L394.345 63.6835Z" fill="#FFAA8C"/>
<path d="M394.345 63.6838L395.493 69.5196C396.328 69.9291 397.058 70.3387 397.893 70.5434C406.03 65.5267 410.62 55.2885 410.62 55.2885L396.849 61.4314L394.345 63.6838Z" fill="#D0886F"/>
<path d="M381.93 39.2139C381.93 39.2139 377.757 35.9376 376.609 40.2377C375.461 44.5377 378.487 52.114 383.286 49.8616L381.93 39.2139Z" fill="#FFAA8C"/>
<path d="M380.991 53.6502C380.991 53.6502 383.286 65.7313 396.014 63.2742C408.741 60.9194 415.418 49.4525 415.835 48.9406L415.522 46.3811L413.749 33.0713L412.81 26.007C412.81 26.007 411.975 13.1068 399.248 13.0044C389.963 13.0044 381.825 15.9735 378.487 21.3998C378.383 21.6045 378.278 21.7069 378.174 21.9117C377.131 23.7545 376.714 25.9046 376.922 28.2594L379.009 40.9548L379.53 44.0263L380.991 53.6502Z" fill="#FFAA8C"/>
<path d="M400.604 27.1326C400.187 28.6684 398.727 29.5898 397.162 29.2827C396.223 29.0779 395.179 28.8731 394.136 28.8731C392.571 28.8731 391.424 27.5422 391.528 26.0064C391.424 26.0064 397.266 24.3683 400.604 27.1326Z" fill="#35252F"/>
<path d="M377.548 31.4332C378.487 32.7642 380.261 33.0713 381.617 32.1499C382.347 31.638 383.286 31.126 384.329 30.7165C385.79 30.1022 386.416 28.4641 385.686 27.1331C385.686 27.0307 379.635 27.645 377.548 31.4332Z" fill="#35252F"/>
<path d="M378.359 21.6448C380.279 20.5991 381.879 20.9128 385.292 21.7493C390.306 22.8995 395.107 20.1809 399.16 17.044C403.321 13.9071 406.628 16.6257 405.454 18.9261C404.281 21.3311 404.814 23.0041 407.054 25.3045C409.294 27.6048 404.601 29.8007 407.694 31.3691C408.974 31.9965 409.188 33.3558 408.974 34.7151C408.761 36.179 410.148 37.3292 411.535 36.8064C412.921 36.179 414.521 33.1467 414.521 33.1467L413.561 25.9318C413.561 25.9318 412.708 12.7569 399.694 12.6523C390.199 12.6523 381.879 15.6847 378.465 21.2265C378.572 21.3311 378.465 21.4356 378.359 21.6448Z" fill="#030229"/>
<path d="M400.295 40.2142C398.03 40.6362 396.056 40.2579 395.884 39.3691C395.712 38.4803 397.407 37.4177 399.672 36.9956C401.936 36.5736 403.911 36.9519 404.083 37.8407C404.255 38.7295 402.559 39.7922 400.295 40.2142Z" fill="#FD9983"/>
<path d="M379.426 44.0257C379.739 44.0257 380.052 43.9234 380.469 43.9234C382.764 43.5138 384.433 42.49 384.225 41.5686C384.016 40.6471 382.034 40.34 379.843 40.7495C379.53 40.8519 379.217 40.8519 379.009 40.9543L379.426 44.0257Z" fill="#FD9983"/>
<path d="M395.935 36.7127C395.256 36.8393 394.514 35.9512 394.277 34.7291C394.041 33.5071 394.4 32.4137 395.079 32.2871C395.758 32.1605 396.501 33.0486 396.737 34.2706C396.974 35.4927 396.615 36.586 395.935 36.7127Z" fill="#35252F"/>
<path d="M383.615 38.9627C382.936 39.0893 382.194 38.2012 381.957 36.9791C381.721 35.7571 382.079 34.6637 382.759 34.5371C383.438 34.4105 384.18 35.2986 384.417 36.5206C384.653 37.7427 384.294 38.836 383.615 38.9627Z" fill="#35252F"/>
<path d="M389.441 47.9169C393.927 47.0978 396.848 42.593 396.953 42.593C397.057 42.3882 397.057 42.0811 396.744 41.8763C396.535 41.7739 396.222 41.7739 396.014 42.0811C395.805 42.3882 391.215 49.2478 384.955 46.3811C384.747 46.2787 384.434 46.3811 384.225 46.5859C384.121 46.7906 384.225 47.0978 384.434 47.3026C386.312 48.1216 387.981 48.224 389.441 47.9169Z" fill="#35252F"/>
<path d="M410.932 44.7427C411.036 44.8451 413.332 48.2237 415.835 48.838L415.522 46.2784C415.522 46.3808 413.436 46.3808 410.932 44.7427Z" fill="#35252F"/>
<path d="M411.558 36.0401C411.558 36.0401 415.21 28.6686 419.8 33.071C423.556 36.7568 420.113 48.6332 413.54 45.9712L411.558 36.0401Z" fill="#FFAA8C"/>
<path d="M413.749 43.9232C413.958 43.9232 414.167 43.6161 414.167 43.4113C413.749 38.3946 417.609 35.9374 417.818 35.835C418.027 35.7326 418.131 35.3231 417.922 35.1183C417.818 34.9136 417.505 34.8112 417.192 34.9136C416.983 35.016 412.706 37.7803 413.123 43.4113C413.228 43.7185 413.436 43.9232 413.749 43.9232Z" fill="#35252F"/>
<path d="M417.923 40.0328C418.027 40.0328 418.236 39.9304 418.236 39.7257C418.34 39.5209 418.236 39.2138 418.027 39.009C417.818 38.9066 415.732 37.7804 414.271 38.4971C414.063 38.5995 413.854 38.9066 414.063 39.2138C414.167 39.4185 414.48 39.6233 414.793 39.4185C415.627 39.009 417.088 39.6233 417.61 39.9304C417.714 40.0328 417.818 40.0328 417.923 40.0328Z" fill="#35252F"/>
<path d="M371.08 39.3163L378.592 38.1901L378.8 39.2139L371.289 40.3401C370.976 40.3401 370.767 40.2377 370.663 39.9306C370.559 39.6234 370.767 39.4187 371.08 39.3163Z" fill="#605BFF"/>
<path d="M400.5 42.388C405.299 41.4666 408.533 36.9618 407.594 32.1498C406.655 27.4402 402.065 24.2663 397.162 25.1878C392.363 26.1092 389.129 30.6141 390.068 35.426C391.007 40.238 395.701 43.3095 400.5 42.388ZM397.37 26.314C401.648 25.4949 405.716 28.2593 406.551 32.4569C407.386 36.6546 404.569 40.6475 400.292 41.4666C396.014 42.2857 391.946 39.5213 391.111 35.3236C390.381 31.126 393.197 27.1331 397.37 26.314Z" fill="#605BFF"/>
<path d="M379.844 46.2783C384.643 45.3568 387.877 40.852 386.938 36.04C385.999 31.3305 381.409 28.1566 376.506 29.078C371.707 29.9995 368.473 34.5043 369.412 39.3163C370.455 44.0259 375.045 47.1997 379.844 46.2783ZM376.819 30.1019C381.096 29.2828 385.165 32.0471 385.999 36.2448C386.834 40.4425 384.017 44.4354 379.74 45.2545C375.462 46.0735 371.394 43.3092 370.559 39.1115C369.725 34.9138 372.541 30.9209 376.819 30.1019Z" fill="#605BFF"/>
<path d="M418.235 32.0476C418.34 32.0476 418.34 32.0476 418.444 31.9453C418.653 31.8429 418.757 31.4333 418.653 31.2286C415.21 25.8023 406.655 30.5119 406.551 30.5119C406.342 30.6143 406.238 30.9214 406.342 31.2286C406.447 31.4333 406.76 31.5357 407.073 31.4333C407.177 31.4333 414.793 27.1333 417.714 31.7405C417.818 32.0476 418.027 32.15 418.235 32.0476Z" fill="#605BFF"/>
<path d="M390.38 41.6712C390.693 41.5688 390.797 41.3641 390.797 41.0569C390.693 40.7498 390.484 40.6474 390.171 40.6474C388.294 40.9545 387.25 40.2378 386.937 39.8283C388.189 35.4259 389.337 30.921 389.337 30.8187C389.441 30.5115 389.232 30.3067 388.92 30.2044C388.607 30.102 388.398 30.3068 388.294 30.6139C388.294 30.6139 387.042 35.3235 385.79 39.8283C385.79 39.9307 385.79 40.1355 385.894 40.2378C385.998 40.4426 387.355 42.2855 390.38 41.6712Z" fill="#35252F"/>
<path d="M386.103 34.8119C386.207 34.8119 386.312 34.7095 386.416 34.6071C387.564 32.8666 389.963 33.6857 389.963 33.6857C390.276 33.788 390.589 33.6857 390.589 33.3785C390.693 33.0714 390.589 32.7642 390.276 32.7642C389.129 32.3547 386.729 32.1499 385.477 33.9928C385.269 34.1976 385.373 34.5047 385.582 34.7095C385.894 34.8119 385.999 34.9143 386.103 34.8119Z" fill="#605BFF"/>
<path d="M417.715 58.2574C417.715 58.2574 426.374 58.0527 428.147 66.1409L422.931 77.5053C422.931 77.5053 418.028 70.9529 406.552 71.3624C406.448 71.3624 415.002 65.1171 417.715 58.2574Z" fill="white"/>
<path d="M399.979 71.1577C399.979 71.1577 395.702 69.5196 394.554 65.0148C394.554 65.0148 386.939 69.3148 387.043 76.1744L394.033 79.5531C394.137 79.6555 396.537 73.6149 399.979 71.1577Z" fill="white"/>
<path d="M476.553 207.531C476.553 207.531 489.907 259.336 420.635 259.336C383.599 259.336 365.969 255.855 365.969 255.855C365.969 255.855 365.03 287.901 363.36 301.518C361.587 315.032 355.536 348.819 355.536 348.819L326.325 351.071C326.325 351.071 321.63 233.638 339.574 222.786C357.414 211.933 383.182 211.626 427.312 207.531C427.312 207.326 466.955 200.774 476.553 207.531Z" fill="#35252F"/>
<path d="M351.572 339.297C351.467 339.297 351.467 339.297 351.363 339.297C350.946 339.195 350.633 338.785 350.737 338.375C354.806 321.892 356.371 298.139 357.623 279.198C358.875 260.462 359.605 250.634 361.587 248.893C363.778 246.948 370.246 247.665 380.992 248.791C394.345 250.224 414.48 252.272 436.18 249.815C446.925 248.586 455.271 244.491 460.8 237.529C470.711 225.038 468.416 207.531 468.416 207.326C468.312 206.916 468.625 206.507 469.146 206.405C469.564 206.302 469.981 206.609 470.085 207.121C470.19 207.838 472.485 225.448 462.156 238.45C456.314 245.719 447.76 250.122 436.493 251.35C414.584 253.808 394.345 251.658 380.992 250.327C371.707 249.405 364.404 248.586 362.735 250.019C362.317 250.327 361.587 251.965 360.857 259.029C360.335 264.251 359.813 271.213 359.292 279.301C358.04 298.344 356.371 322.097 352.302 338.785C352.302 339.092 351.885 339.297 351.572 339.297Z" fill="#67505A"/>
<path d="M326.742 341.652C326.325 341.652 326.012 341.345 325.908 340.935C325.908 340.526 326.221 340.116 326.638 340.116L356.475 338.376C356.892 338.376 357.31 338.683 357.31 339.093C357.31 339.502 356.997 339.912 356.579 339.912L326.742 341.652Z" fill="#67505A"/>
<path d="M428.147 88.7672L428.042 90.8148L427.938 92.9649C427.834 94.3982 427.729 95.9339 427.625 97.3673C427.312 100.336 427.103 103.203 426.686 106.172C426.477 107.606 426.373 109.141 426.164 110.575C425.956 112.008 425.747 113.441 425.539 114.977C425.121 117.844 424.6 120.71 424.078 123.577C423.556 126.444 422.93 129.208 422.304 131.973C421.991 133.304 421.574 134.737 421.261 136.068C420.844 137.399 420.531 138.73 420.114 139.958C419.279 142.518 418.34 144.975 417.401 147.33C416.358 149.582 415.315 151.732 414.167 153.473C413.019 155.213 411.872 156.544 410.933 157.363C410.516 157.773 410.098 158.08 409.785 158.182L409.681 158.285H409.577C409.368 158.387 409.055 158.49 408.846 158.592L408.429 158.797L408.012 159.002C407.699 159.104 407.49 159.206 407.177 159.309C406.03 159.718 404.778 160.128 403.526 160.537C402.274 160.947 400.918 161.254 399.457 161.561C396.64 162.278 393.824 162.892 390.903 163.404C387.981 163.916 384.956 164.53 381.931 164.94C380.47 165.144 378.905 165.452 377.445 165.656C375.88 165.861 374.419 166.168 372.854 166.373C369.829 166.783 366.699 167.192 363.674 167.602L354.493 168.728H354.18C348.025 169.547 343.748 175.076 344.478 181.014C345.208 186.338 349.694 190.331 355.015 190.535L356.267 190.638H357.519C358.353 190.638 359.188 190.74 360.022 190.74C361.692 190.74 363.256 190.842 364.926 190.842C368.16 190.842 371.498 190.842 374.732 190.74C376.401 190.74 378.071 190.638 379.635 190.535C381.305 190.433 382.974 190.331 384.643 190.228C387.981 190.023 391.32 189.819 394.658 189.409C397.997 189 401.439 188.59 404.882 188.078C408.325 187.464 411.872 186.747 415.628 185.723C416.149 185.621 416.567 185.416 417.088 185.314L417.818 185.109L418.549 184.904C419.07 184.699 419.592 184.597 420.009 184.392H420.114H420.218L420.427 184.29L420.948 184.085C421.261 183.983 421.574 183.778 421.887 183.676C424.391 182.549 426.79 181.116 428.773 179.58C432.841 176.509 435.762 173.028 438.266 169.547C440.666 166.066 442.544 162.687 444.213 159.309C445.778 155.93 447.134 152.551 448.281 149.173C448.907 147.535 449.429 145.794 449.951 144.156C450.472 142.518 450.89 140.777 451.307 139.139C452.141 135.863 452.976 132.484 453.602 129.208C454.228 125.932 454.854 122.656 455.376 119.38C455.584 117.741 455.897 116.103 456.106 114.465C456.314 112.827 456.523 111.189 456.732 109.551C457.045 106.275 457.358 102.998 457.566 99.7221C457.671 98.084 457.775 96.4459 457.879 94.8077L457.984 92.3506V91.122V89.6886C458.192 81.6004 451.62 74.9455 443.378 74.7408C435.345 74.6384 428.668 80.679 428.251 88.46L428.147 88.7672Z" fill="#FFAA8C"/>
<path d="M358.874 166.885C358.874 166.885 362.734 179.068 360.335 188.897C358.874 189.921 356.579 190.433 354.806 190.023C354.806 190.023 357.205 179.171 353.345 166.885C355.119 166.168 356.996 166.168 358.874 166.885Z" fill="#35252F"/>
<path d="M358.561 188.795C354.643 188.795 351.467 185.678 351.467 181.833C351.467 177.988 354.643 174.871 358.561 174.871C362.479 174.871 365.655 177.988 365.655 181.833C365.655 185.678 362.479 188.795 358.561 188.795Z" fill="#35252F"/>
<path d="M358.874 186.747C361.691 186.542 363.778 184.188 363.673 181.423C363.465 178.659 361.065 176.611 358.248 176.714C355.431 176.918 353.345 179.273 353.449 182.038C353.658 184.802 356.162 186.952 358.874 186.747Z" fill="white"/>
<path d="M422.931 166.475C423.035 166.475 423.139 166.475 423.244 166.373C423.452 166.168 423.452 165.861 423.244 165.656C418.653 160.64 411.351 157.568 411.038 157.466C410.725 157.363 410.516 157.466 410.307 157.773C410.203 158.08 410.307 158.285 410.62 158.49C410.725 158.49 418.027 161.561 422.409 166.475C422.618 166.475 422.722 166.475 422.931 166.475Z" fill="#D0886F"/>
<path d="M421.783 160.025C421.991 160.025 422.2 159.82 422.304 159.616C422.409 159.308 422.2 159.104 421.887 159.001C421.678 158.899 415.836 157.67 411.872 157.875C411.559 157.875 411.35 158.182 411.35 158.387C411.35 158.694 411.663 158.899 411.872 158.899C415.628 158.694 421.574 160.025 421.574 160.025C421.783 160.025 421.783 160.025 421.783 160.025Z" fill="#D0886F"/>
<path d="M461.426 90.9169C461.322 97.7765 459.339 121.734 455.479 134.429L421.574 128.286C421.574 128.286 425.538 102.281 426.999 86.1049C427.416 80.8834 430.233 76.0714 434.719 73.1023C437.744 71.1571 441.708 69.8261 446.612 70.7476C456.418 72.5904 459.861 81.7025 461.009 86.3097C461.322 87.9478 461.426 89.3812 461.426 90.9169Z" fill="#605BFF"/>
<path d="M455.48 134.942C455.688 134.942 455.897 134.839 456.001 134.635C462.261 115.284 461.739 95.8317 461.739 95.6269C461.739 95.3198 461.531 95.115 461.218 95.115C460.905 95.115 460.696 95.3198 460.696 95.6269C460.696 95.8317 461.218 115.08 454.958 134.327C454.854 134.635 455.062 134.839 455.271 134.942C455.375 134.942 455.375 134.942 455.48 134.942Z" fill="white"/>
<path d="M421.575 128.798C421.783 128.798 421.992 128.594 422.096 128.389C424.078 117.331 426.791 92.9644 426.791 92.7597C426.791 92.4525 426.582 92.2478 426.373 92.1454C426.061 92.1454 425.852 92.3501 425.748 92.5549C425.748 92.7597 423.035 117.127 421.053 128.082C420.949 128.491 421.157 128.798 421.575 128.798C421.47 128.798 421.575 128.798 421.575 128.798Z" fill="white"/>
<path d="M473.631 331.721H380.052C377.861 331.721 376.087 329.981 376.087 327.831C376.087 325.681 377.861 323.94 380.052 323.94H473.631C475.822 323.94 477.596 325.681 477.596 327.831C477.596 329.981 475.822 331.721 473.631 331.721Z" fill="#EF37FF"/>
<path d="M371.393 391.103C371.184 391.103 371.08 391.103 370.871 391.103C368.68 390.796 367.22 388.851 367.428 386.701L384.538 261.794C384.851 259.849 386.52 258.416 388.502 258.416H464.868C466.85 258.416 468.52 259.849 468.833 261.794L485.629 386.803C485.942 388.953 484.377 390.899 482.186 391.206C479.995 391.513 478.013 389.977 477.7 387.827L461.321 266.299H391.841L375.253 387.929C375.044 389.772 373.375 391.103 371.393 391.103Z" fill="#FFD66B"/>
<path d="M410.62 262.306H460.278C476.031 262.306 492.828 253.911 495.227 238.656C498.461 218.281 499.296 198.522 498.357 180.4C497.314 159.923 486.673 140.88 470.189 128.185C470.189 128.185 482.5 190.229 473.528 229.032C468.311 251.146 410.62 262.306 410.62 262.306Z" fill="#FFD66B"/>
<path d="M280.735 191.764H400.396C400.709 191.764 400.918 191.559 400.918 191.252C400.918 187.566 397.893 184.7 394.241 184.7H280.84C280.527 184.7 280.318 184.904 280.318 185.211V191.354C280.214 191.559 280.527 191.764 280.735 191.764Z" fill="#EF37FF"/>
<path d="M240.459 126.428L255.378 188.471C255.795 190.11 257.255 191.338 259.029 191.338H351.044C353.443 191.338 355.217 189.086 354.695 186.833L339.777 124.79C339.359 123.151 337.899 121.923 336.125 121.923H244.11C241.711 121.923 239.937 124.175 240.459 126.428Z" fill="#EF37FF"/>
<path d="M288.882 156.878C289.821 161.792 294.62 165.683 299.523 165.683C304.426 165.683 307.764 161.69 306.826 156.878C305.887 151.963 301.088 148.073 296.184 148.073C291.281 148.073 287.943 151.963 288.882 156.878Z" fill="#FFD66B"/>
<path d="M332.794 122.349L348.651 191.662H351.364C353.763 191.662 355.537 189.409 355.015 187.157L340.097 125.113C339.679 123.475 338.219 122.246 336.445 122.246H332.794V122.349Z" fill="#EF37FF"/>
<path d="M151.58 196.678V201.49C151.58 204.254 153.98 206.506 156.901 206.506H523.812C526.734 206.506 529.133 204.254 529.133 201.49V196.678C529.133 193.913 526.734 191.661 523.812 191.661H156.901C153.875 191.661 151.58 193.913 151.58 196.678Z" fill="#605BFF"/>
<path d="M171.82 218.69H498.253C504.93 218.69 510.251 213.366 510.251 206.916V206.404H159.718V206.916C159.822 213.366 165.143 218.69 171.82 218.69Z" fill="#605BFF"/>
<path d="M166.604 279.505H498.671V288.003H166.604V279.505Z" fill="#605BFF"/>
<path d="M514.528 392.638L471.755 218.69H486.777L529.551 392.638H514.528Z" fill="#605BFF"/>
<path d="M152.624 392.638L195.397 218.69H180.375L137.601 392.638H152.624Z" fill="#605BFF"/>
<path d="M151.476 199.033H529.029V201.183H151.476V199.033Z" fill="#1B48CA"/>
<path d="M495.479 151.605L500.12 152.303L494.75 186.712L490.109 186.015L495.479 151.605Z" fill="#FAB623"/>
<path d="M495.483 151.631L500.073 152.347L499.03 148.866L498.508 147.023L497.465 148.559L495.483 151.631Z" fill="#FF8C64"/>
<path d="M490.478 183.566L495.118 184.264L494.723 186.794L490.083 186.096L490.478 183.566Z" fill="#35252F"/>
<path d="M490.058 188.079L494.127 188.693C494.335 188.693 494.44 188.591 494.44 188.386L494.753 186.645L490.058 185.929L489.745 187.669C489.745 187.874 489.849 188.079 490.058 188.079Z" fill="#EF452F"/>
<path d="M497.466 148.559L499.03 148.866L498.509 147.023L497.466 148.559Z" fill="#35252F"/>
<path d="M495.105 184.266L490.465 183.568L490.749 181.747L495.39 182.444L495.105 184.266Z" fill="#F68407"/>
<path d="M498.717 153.883L494.752 179.376C494.752 179.581 494.544 179.683 494.335 179.683C494.126 179.683 494.022 179.479 494.022 179.274L497.986 153.781C497.986 153.576 498.195 153.473 498.404 153.473C498.612 153.473 498.717 153.678 498.717 153.883Z" fill="#F68407"/>
<path d="M496.839 153.576L492.875 179.069C492.875 179.274 492.666 179.376 492.457 179.376C492.249 179.376 492.144 179.171 492.144 178.967L496.109 153.473C496.109 153.269 496.317 153.166 496.526 153.166C496.735 153.166 496.839 153.371 496.839 153.576Z" fill="#F68407"/>
<path d="M487.088 151.726L491.783 151.741L491.667 186.551L486.973 186.536L487.088 151.726Z" fill="#4F9D5C"/>
<path d="M487.032 151.732L491.727 151.834L490.162 148.456L489.432 146.818L488.597 148.456L487.032 151.732Z" fill="#FF8C64"/>
<path d="M486.93 184.078L491.625 184.093L491.617 186.653L486.922 186.638L486.93 184.078Z" fill="#35252F"/>
<path d="M487.241 188.59H491.309C491.518 188.59 491.622 188.488 491.622 188.283V186.543H486.928V188.283C486.928 188.488 487.032 188.59 487.241 188.59Z" fill="#EF452F"/>
<path d="M488.596 148.457H490.161L489.431 146.818L488.596 148.457Z" fill="#35252F"/>
<path d="M491.626 184.094L486.932 184.079L486.938 182.236L491.632 182.251L491.626 184.094Z" fill="#3C7341"/>
<path d="M490.58 153.473L490.476 179.273C490.476 179.478 490.267 179.58 490.163 179.58C489.954 179.58 489.85 179.376 489.85 179.273L489.954 153.473C489.954 153.268 490.163 153.166 490.267 153.166C490.371 153.166 490.58 153.268 490.58 153.473Z" fill="#3C7341"/>
<path d="M488.701 153.473L488.597 179.274C488.597 179.479 488.388 179.581 488.284 179.581C488.075 179.581 487.971 179.376 487.971 179.274L488.075 153.473C488.075 153.269 488.284 153.166 488.388 153.166C488.597 153.166 488.701 153.269 488.701 153.473Z" fill="#3C7341"/>
<path d="M478.912 152.256L483.561 151.608L488.551 186.073L483.903 186.721L478.912 152.256Z" fill="#1B6BFE"/>
<path d="M478.896 152.245L483.591 151.631L481.609 148.559L480.565 147.023L479.939 148.764L478.896 152.245Z" fill="#FF8C64"/>
<path d="M483.525 184.246L488.174 183.598L488.54 186.132L483.892 186.78L483.525 184.246Z" fill="#35252F"/>
<path d="M484.529 188.693L488.598 188.079C488.807 188.079 488.911 187.874 488.911 187.772L488.702 186.031L484.008 186.645L484.216 188.386C484.216 188.591 484.321 188.693 484.529 188.693Z" fill="#EF452F"/>
<path d="M479.939 148.764L481.608 148.559L480.565 147.023L479.939 148.764Z" fill="#35252F"/>
<path d="M488.204 183.525L483.556 184.173L483.291 182.348L487.94 181.7L488.204 183.525Z" fill="#1B48CA"/>
<path d="M482.651 153.473L486.303 178.967C486.303 179.171 486.198 179.376 485.99 179.376C485.781 179.376 485.572 179.274 485.572 179.069L481.921 153.576C481.921 153.371 482.025 153.166 482.234 153.166C482.443 153.166 482.651 153.269 482.651 153.473Z" fill="#1B48CA"/>
<path d="M480.878 153.781L484.529 179.274C484.529 179.479 484.425 179.683 484.216 179.683C484.007 179.683 483.799 179.581 483.799 179.376L480.147 153.883C480.147 153.678 480.252 153.473 480.46 153.473C480.669 153.371 480.773 153.576 480.878 153.781Z" fill="#1B48CA"/>
<path d="M477.33 165.554L477.643 167.397L477.852 169.138L478.165 171.697L478.373 173.336L478.79 175.997L478.999 177.636L479.312 180.195L479.521 181.833L479.834 184.495L480.042 186.133L480.46 188.795L480.668 190.331L480.877 191.764H499.343L499.551 190.331L499.76 188.795L500.073 186.133L500.281 184.495L500.594 181.833L500.803 180.195L501.22 177.636L501.429 175.997L501.742 173.336L501.951 171.697L502.264 169.138L502.472 167.397L502.785 165.554H477.33Z" fill="#EF452F"/>
<path d="M477.643 167.397L477.852 169.138H502.264L502.473 167.397H477.643Z" fill="#AD2F24"/>
<path d="M478.165 171.698L478.373 173.336H501.742L501.951 171.698H478.165Z" fill="#AD2F24"/>
<path d="M478.791 175.996L478.999 177.634H501.221L501.429 175.996H478.791Z" fill="#AD2F24"/>
<path d="M479.313 180.195L479.521 181.833H500.595L500.804 180.195H479.313Z" fill="#AD2F24"/>
<path d="M479.834 184.495L480.043 186.133H500.073L500.282 184.495H479.834Z" fill="#AD2F24"/>
<path d="M480.461 188.794L480.669 190.33H499.552L499.761 188.794H480.461Z" fill="#AD2F24"/>
<path d="M168.586 164.94H208.542V170.571H168.586V164.94Z" fill="#FAB623"/>
<path d="M167.96 187.055C172.029 191.764 183.609 191.867 187.364 191.764C188.095 191.764 188.512 191.764 188.512 191.764C188.512 191.764 204.161 192.788 209.064 187.055C211.777 183.779 210.316 178.967 208.438 175.383C208.021 174.564 207.499 173.745 207.082 173.028C206.143 171.493 205.413 170.571 205.413 170.571H171.611C171.611 170.571 170.046 172.619 168.586 175.281C166.812 178.967 165.248 183.779 167.96 187.055Z" fill="#FAB623"/>
<path d="M201.448 182.652C203.118 187.874 196.858 191.867 188.512 191.662C188.512 191.662 204.161 192.686 209.064 186.952C211.777 183.676 210.316 178.864 208.438 175.281C208.438 175.178 208.334 175.076 208.334 175.076C208.334 174.974 208.229 174.871 208.229 174.871C207.917 174.257 207.499 173.643 207.186 173.028C206.247 171.493 205.517 170.571 205.517 170.571H171.716C171.716 170.571 170.151 172.619 168.69 175.281H183.817C187.573 175.281 191.329 175.997 194.876 177.328C197.797 178.557 200.718 180.298 201.448 182.652Z" fill="#F68407"/>
<path d="M174.428 159.923C174.845 160.64 175.367 161.254 175.784 161.766C177.14 163.609 178.288 164.837 178.392 164.94H198.736C198.84 164.837 199.883 163.609 201.344 161.766C201.761 161.151 202.283 160.537 202.7 159.923C205.204 156.237 207.812 151.323 207.082 147.637C206.873 146.511 206.56 145.692 206.038 145.18C205.83 144.873 205.621 144.668 205.308 144.566C203.117 143.337 199.779 146.204 198.736 146.101C197.275 145.999 199.674 138.934 203.013 133.918C206.143 129.208 208.125 123.065 204.369 120.813C204.265 120.71 204.056 120.608 203.952 120.608C203.847 120.506 203.639 120.506 203.534 120.403C198.631 118.663 196.858 125.113 194.771 124.191C192.685 123.27 199.049 102.486 189.138 102.486C189.033 102.486 188.825 102.486 188.616 102.486C188.407 102.486 188.303 102.486 188.094 102.486C178.183 102.486 184.547 123.372 182.461 124.191C180.374 125.113 178.705 118.56 173.697 120.403C173.593 120.506 173.384 120.506 173.28 120.608C173.176 120.71 172.967 120.71 172.863 120.813C169.003 123.065 171.089 129.311 174.219 133.918C177.557 138.934 179.853 145.896 178.496 146.101C177.453 146.204 174.115 143.235 171.924 144.566C171.715 144.668 171.402 144.873 171.194 145.18C170.776 145.692 170.463 146.511 170.15 147.637C169.316 151.323 171.924 156.237 174.428 159.923Z" fill="#4F9D5C"/>
<path d="M188.094 102.487V164.94H189.033V102.487C188.929 102.487 188.72 102.487 188.511 102.487C188.407 102.487 188.198 102.487 188.094 102.487Z" fill="#3C7341"/>
<path d="M188.199 138.321L188.512 138.628L188.825 138.935L188.929 138.833L204.578 121.121L204.16 120.814C204.056 120.711 203.847 120.609 203.743 120.609L188.929 137.4L188.407 137.912L188.199 138.321Z" fill="#3C7341"/>
<path d="M188.198 163.916L188.511 164.223L188.824 164.53L188.929 164.427L205.934 145.18C205.725 144.872 205.516 144.668 205.203 144.565L188.929 162.994L188.407 163.506L188.198 163.916Z" fill="#3C7341"/>
<path d="M172.446 121.018L188.095 138.73L188.199 138.833L188.512 138.526L188.825 138.219L188.512 137.809L187.99 137.297L173.176 120.506C173.072 120.609 172.863 120.609 172.759 120.711L172.446 121.018Z" fill="#3C7341"/>
<path d="M170.985 145.077L187.99 164.325L188.095 164.427L188.408 164.12L188.721 163.813L188.408 163.404L187.886 162.892L171.611 144.463C171.507 144.668 171.298 144.872 170.985 145.077Z" fill="#3C7341"/>
<path opacity="0.2" d="M590.268 395.812C561.632 395.812 538.418 394.024 538.418 391.819C538.418 389.614 561.632 387.826 590.268 387.826C618.904 387.826 642.118 389.614 642.118 391.819C642.118 394.024 618.904 395.812 590.268 395.812Z" fill="#605BFF"/>
<path d="M553.128 374.415L545.095 256.163H638.049L629.912 374.415H553.128Z" fill="#EF452F"/>
<path d="M545.825 267.322L636.901 272.441L637.527 263.124H545.512L545.825 267.322Z" fill="#AD2F24"/>
<path d="M541.965 263.124H641.074C642.43 263.124 643.577 261.998 643.577 260.667V255.241C643.577 253.91 642.43 252.784 641.074 252.784H541.965C540.608 252.784 539.461 253.91 539.461 255.241V260.667C539.461 261.998 540.608 263.124 541.965 263.124Z" fill="#EF5F44"/>
<path d="M555.527 282.066L557.822 321.585H625.321L627.616 282.066H555.527Z" fill="#AD2F24"/>
<path d="M591.519 306.739C589.676 306.739 588.181 305.272 588.181 303.463C588.181 301.653 589.676 300.186 591.519 300.186C593.363 300.186 594.858 301.653 594.858 303.463C594.858 305.272 593.363 306.739 591.519 306.739Z" fill="#EF452F"/>
<path d="M558.657 330.902L560.743 366.839H622.295L624.382 330.902H558.657Z" fill="#AD2F24"/>
<path d="M591.519 353.426C589.675 353.426 588.181 351.96 588.181 350.15C588.181 348.341 589.675 346.874 591.519 346.874C593.363 346.874 594.858 348.341 594.858 350.15C594.858 351.96 593.363 353.426 591.519 353.426Z" fill="#EF452F"/>
<path d="M601.431 374.415C601.64 374.415 601.848 374.415 601.953 374.415C611.237 374.517 619.271 380.865 621.357 389.568L621.983 392.025H629.181L629.912 374.415H601.431Z" fill="#AD2F24"/>
<path d="M581.61 374.415C581.401 374.415 581.192 374.415 581.088 374.415C571.803 374.517 563.77 380.865 561.684 389.567L561.058 392.025H553.859L553.129 374.415H581.61Z" fill="#AD2F24"/>
<path d="M610.089 193.709C610.089 193.709 618.227 195.962 627.199 184.597C633.667 176.304 645.143 158.694 661 158.387C661 158.387 642.221 150.401 625.634 158.49C608.942 166.68 600.074 187.771 610.089 193.709Z" fill="#4F9D5C"/>
<path d="M605.186 226.676C605.395 226.676 605.604 226.472 605.604 226.267C605.604 226.164 605.082 215.107 607.273 202.617C609.359 191.047 614.158 175.895 625.739 168.83C625.947 168.728 626.052 168.421 625.843 168.216C625.739 168.011 625.426 167.909 625.217 168.114C620.001 171.287 615.723 176.304 612.385 183.164C609.777 188.59 607.69 195.04 606.438 202.514C604.143 215.107 604.769 226.267 604.769 226.369C604.769 226.472 604.978 226.676 605.186 226.676Z" fill="#3C7341"/>
<path d="M603.83 168.523C603.83 168.523 595.589 166.68 593.398 152.346C591.833 142.006 590.477 121.12 576.81 113.339C576.81 113.339 597.258 115.284 607.69 130.334C618.123 145.384 615.515 168.113 603.83 168.523Z" fill="#4F9D5C"/>
<path d="M592.563 227.598C592.771 227.598 592.876 227.496 592.98 227.291C593.084 227.189 598.509 212.445 602.474 194.324C604.769 183.676 606.229 173.95 606.542 165.35C607.064 154.599 605.916 145.692 603.308 138.935C603.204 138.73 602.995 138.628 602.787 138.73C602.578 138.832 602.474 139.037 602.578 139.242C608.42 154.497 605.29 177.533 601.639 194.119C597.675 212.241 592.25 226.881 592.25 226.984C592.146 227.189 592.25 227.496 592.459 227.496C592.459 227.598 592.459 227.598 592.563 227.598Z" fill="#3C7341"/>
<path d="M589.433 175.485C589.433 175.485 581.087 176.611 573.784 164.018C568.568 154.906 559.7 135.965 544.051 133.406C544.051 133.406 563.873 128.082 579.105 138.422C594.44 148.968 600.178 170.98 589.433 175.485Z" fill="#4F9D5C"/>
<path d="M588.181 227.597C588.389 227.597 588.598 227.495 588.598 227.29C588.598 227.188 591.415 213.264 591.415 196.678C591.415 186.952 590.58 178.147 588.807 170.57C586.616 161.151 582.964 153.575 578.061 148.046C577.852 147.842 577.644 147.842 577.435 148.046C577.227 148.251 577.227 148.456 577.435 148.661C588.389 160.844 590.684 181.423 590.58 196.678C590.476 213.162 587.763 226.983 587.763 227.086C587.659 227.29 587.868 227.495 588.181 227.597C588.076 227.597 588.181 227.597 588.181 227.597Z" fill="#3C7341"/>
<path d="M575.036 194.733C575.036 194.733 567.003 197.497 557.405 186.542C550.415 178.659 537.896 161.766 522.039 162.38C522.039 162.38 540.296 153.268 557.405 160.537C574.514 167.704 584.634 188.283 575.036 194.733Z" fill="#4F9D5C"/>
<path d="M582.86 227.598C583.069 227.598 583.278 227.393 583.278 227.188C583.278 227.086 583.486 217.564 580.565 205.79C578.792 198.93 576.392 192.583 573.262 187.054C569.298 180.092 564.291 174.359 558.344 170.059C558.135 169.956 557.927 169.956 557.718 170.161C557.614 170.366 557.614 170.571 557.822 170.775C571.072 180.502 577.018 195.347 579.731 206.097C582.652 217.769 582.443 227.086 582.443 227.188C582.443 227.393 582.547 227.598 582.86 227.598Z" fill="#3C7341"/>
<path d="M556.884 237.426C556.884 238.654 557.092 239.883 557.51 241.214C559.179 246.743 563.978 250.838 569.82 251.657C584.008 253.602 598.614 253.5 613.637 251.555C620.209 250.736 625.53 245.821 626.573 239.371C626.782 238.245 626.782 237.221 626.677 236.095C626.364 232.409 624.382 228.826 620.626 225.242H562.935C558.762 229.133 556.884 233.228 556.884 237.426Z" fill="#FFD66B"/>
<path d="M589.642 243.057C608.003 243.057 619.896 239.576 626.573 236.607C626.781 236.505 626.886 236.3 626.781 236.095C626.677 235.89 626.468 235.788 626.26 235.89C619.583 238.757 607.898 242.238 589.642 242.238C576.705 242.238 565.855 240.498 557.405 237.119C557.196 237.017 556.883 237.119 556.883 237.324C556.779 237.528 556.883 237.836 557.092 237.836C565.647 241.317 576.601 243.057 589.642 243.057Z" fill="#F68407"/>
<path d="M39.3271 110.781H46.2126V180.81H39.3271V110.781Z" fill="#F2B441"/>
<path d="M39.2228 114.159V120.199L46.2126 122.247V114.159H39.2228Z" fill="#F28D32"/>
<path d="M5.21211 112.93C30.1458 116.718 55.1839 116.718 80.1176 112.93L62.3823 64.7081C49.2373 62.4557 36.0923 62.4557 23.0517 64.7081L5.21211 112.93Z" fill="#1B6BFE"/>
<path d="M42.978 109.245C54.3495 109.245 65.6166 108.631 77.301 107.504C77.7183 107.504 77.9269 107.095 77.9269 106.788C77.9269 106.378 77.5097 106.173 77.1967 106.173C54.1409 108.528 32.2326 108.528 8.3421 106.173C7.9248 106.173 7.61181 106.378 7.61181 106.788C7.61181 107.197 7.82043 107.504 8.23774 107.504C20.1308 108.631 31.6066 109.245 42.978 109.245Z" fill="#1B48CA"/>
<path d="M67.5984 108.324C67.7028 108.324 67.7028 108.324 67.8071 108.324C68.2244 108.221 68.433 107.812 68.3287 107.505L57.3746 64.4017C57.2702 63.9921 56.8529 63.7874 56.5399 63.8897C56.1226 63.9921 55.914 64.4017 56.0183 64.7088L66.9724 107.812C66.9724 108.119 67.2855 108.324 67.5984 108.324Z" fill="#1B48CA"/>
<path d="M17.7306 108.324C18.0436 108.324 18.3565 108.119 18.4608 107.812L29.3107 64.7088C29.415 64.2993 29.2064 63.9921 28.7891 63.8897C28.3718 63.7874 28.0588 63.9921 27.9545 64.4017L17.1046 107.505C17.0003 107.914 17.209 108.221 17.6263 108.324C17.6263 108.324 17.6263 108.324 17.7306 108.324Z" fill="#1B48CA"/>
<path d="M42.6644 109.245C43.0817 109.245 43.3947 108.937 43.3947 108.528V63.7867C43.3947 63.3772 43.0817 63.0701 42.6644 63.0701C42.2471 63.0701 41.9341 63.3772 41.9341 63.7867V108.63C42.0384 108.937 42.3514 109.245 42.6644 109.245Z" fill="#1B48CA"/>
<path d="M25.7653 173.848V180.81H59.671V173.848L42.666 169.958L25.7653 173.848Z" fill="#1B48CA"/>
<path d="M66.1378 171.596H64.8859V169.753L111.311 169.855C112.876 169.855 114.232 170.47 115.275 171.493C116.318 172.517 116.944 173.848 116.944 175.384C116.944 178.455 114.44 180.81 111.311 180.81L64.8859 180.708V179.172H66.1378V171.596Z" fill="#4F9D5C"/>
<path d="M65.8264 171.596V179.172L108.391 179.275C110.478 179.275 112.147 177.534 112.147 175.487C112.147 174.463 111.729 173.541 110.999 172.825C110.269 172.108 109.33 171.698 108.287 171.698L65.8264 171.596Z" fill="white"/>
<path d="M65.8262 173.541V174.668L107.348 174.77C107.661 174.77 107.974 174.463 107.974 174.156C107.974 173.849 107.661 173.541 107.348 173.541H65.8262Z" fill="#EAD6BF"/>
<path d="M65.8262 176.408V177.534L107.348 177.637C107.661 177.637 107.974 177.329 107.974 177.022C107.974 176.715 107.661 176.408 107.348 176.408H65.8262Z" fill="#EAD6BF"/>
<path d="M70.3108 160.641H69.0589V158.798L115.484 158.9C117.049 158.9 118.405 159.515 119.448 160.538C120.491 161.562 121.117 162.893 121.117 164.429C121.117 167.5 118.613 169.855 115.484 169.855L69.0589 169.753V168.217H70.3108V160.641Z" fill="#EF452F"/>
<path d="M69.9983 160.641V168.217L112.563 168.319C114.649 168.319 116.319 166.579 116.319 164.531C116.319 163.507 115.901 162.586 115.171 161.869C114.441 161.152 113.502 160.743 112.459 160.743L69.9983 160.641Z" fill="white"/>
<path d="M69.9996 162.587V163.713L111.521 163.815C111.834 163.815 112.147 163.508 112.147 163.201C112.147 162.894 111.834 162.587 111.521 162.587H69.9996Z" fill="#EAD6BF"/>
<path d="M69.9996 165.453V166.579L111.521 166.681C111.834 166.681 112.147 166.374 112.147 166.067C112.147 165.76 111.834 165.453 111.521 165.453H69.9996Z" fill="#EAD6BF"/>
<path d="M62.2786 149.686H61.0268V147.843L107.451 147.946C109.016 147.946 110.373 148.56 111.416 149.584C112.459 150.607 113.085 151.938 113.085 153.474C113.085 156.546 110.581 158.9 107.451 158.9L61.0268 158.798V157.262H62.2786V149.686Z" fill="#1B6BFE"/>
<path d="M61.9651 149.686V157.262L104.53 157.365C106.616 157.365 108.286 155.624 108.286 153.576C108.286 152.553 107.868 151.631 107.138 150.914C106.408 150.198 105.469 149.788 104.425 149.788L61.9651 149.686Z" fill="white"/>
<path d="M61.9651 151.631V152.758L103.487 152.86C103.8 152.86 104.113 152.553 104.113 152.246C104.113 151.939 103.8 151.631 103.487 151.631H61.9651Z" fill="#EAD6BF"/>
<path d="M61.9651 154.498V155.624L103.487 155.726C103.8 155.726 104.113 155.419 104.113 155.112C104.113 154.805 103.8 154.498 103.487 154.498H61.9651Z" fill="#EAD6BF"/>
<path opacity="0.2" d="M65.8251 397.246C29.8144 397.246 0.621887 394.725 0.621887 391.615C0.621887 388.505 29.8144 385.984 65.8251 385.984C101.836 385.984 131.028 388.505 131.028 391.615C131.028 394.725 101.836 397.246 65.8251 397.246Z" fill="#605BFF"/>
<path d="M8.96751 185.008L23.1557 391.82H108.598L122.786 185.008H8.96751Z" fill="#FAB623"/>
<path d="M9.90646 198.624L121.43 204.972L122.265 193.505H9.48913L9.90646 198.624Z" fill="#F68407"/>
<path d="M4.69082 193.505H127.064C128.525 193.505 129.672 192.379 129.672 190.946V183.369C129.672 181.936 128.525 180.81 127.064 180.81H4.69082C3.23026 180.81 2.08269 181.936 2.08269 183.369V190.946C2.08269 192.379 3.23026 193.505 4.69082 193.505Z" fill="#EDC85A"/>
<path d="M21.696 216.849L24.5128 265.173H107.243L110.059 216.849H21.696Z" fill="#F68407"/>
<path d="M65.8251 247.153C63.5204 247.153 61.6521 245.32 61.6521 243.058C61.6521 240.796 63.5204 238.963 65.8251 238.963C68.1298 238.963 69.9981 240.796 69.9981 243.058C69.9981 245.32 68.1298 247.153 65.8251 247.153Z" fill="#FAB623"/>
<path d="M25.5558 276.537L28.1639 320.664H103.591L106.199 276.537H25.5558Z" fill="#F68407"/>
<path d="M65.8251 304.386C63.5204 304.386 61.6521 302.552 61.6521 300.29C61.6521 298.029 63.5204 296.195 65.8251 296.195C68.1298 296.195 69.9981 298.029 69.9981 300.29C69.9981 302.552 68.1298 304.386 65.8251 304.386Z" fill="#FAB623"/>
<path d="M28.8944 331.824L31.2939 372.367H100.461L102.757 331.824H28.8944Z" fill="#F68407"/>
<path d="M65.8251 356.191C63.5204 356.191 61.6521 354.357 61.6521 352.095C61.6521 349.834 63.5204 348 65.8251 348C68.1298 348 69.9981 349.834 69.9981 352.095C69.9981 354.357 68.1298 356.191 65.8251 356.191Z" fill="#FAB623"/>
</svg>
