<svg width="647" height="602" viewBox="0 0 647 602" fill="none" xmlns="http://www.w3.org/2000/svg">
<path opacity="0.1" d="M323.5 602C502.164 602 647 588.569 647 572C647 555.431 502.164 542 323.5 542C144.836 542 0 555.431 0 572C0 588.569 144.836 602 323.5 602Z" fill="#605BFF"/>
<path d="M510.787 268.439L503.52 269.552L511.93 324.46L519.197 323.347L510.787 268.439Z" fill="#FAB623"/>
<path d="M510.782 268.478L503.594 269.622L505.228 264.067L506.045 261.127L507.678 263.577L510.782 268.478Z" fill="#FF8C64"/>
<path d="M518.621 319.439L511.354 320.552L511.972 324.589L519.239 323.476L518.621 319.439Z" fill="#35252F"/>
<path d="M519.277 326.639L512.905 327.619C512.578 327.619 512.415 327.455 512.415 327.129L511.925 324.351L519.277 323.208L519.767 325.985C519.767 326.312 519.603 326.639 519.277 326.639Z" fill="#EF452F"/>
<path d="M507.676 263.577L505.226 264.067L506.043 261.127L507.676 263.577Z" fill="#35252F"/>
<path d="M511.373 320.555L518.64 319.442L518.195 316.535L510.928 317.648L511.373 320.555Z" fill="#F68407"/>
<path d="M505.718 272.072L511.926 312.752C511.926 313.079 512.253 313.242 512.579 313.242C512.906 313.242 513.07 312.915 513.07 312.588L506.861 271.909C506.861 271.582 506.535 271.419 506.208 271.419C505.881 271.419 505.718 271.746 505.718 272.072Z" fill="#F68407"/>
<path d="M508.657 271.583L514.866 312.262C514.866 312.589 515.192 312.752 515.519 312.752C515.846 312.752 516.009 312.426 516.009 312.099L509.801 271.419C509.801 271.093 509.474 270.929 509.148 270.929C508.821 270.929 508.657 271.256 508.657 271.583Z" fill="#F68407"/>
<path d="M523.928 268.63L516.576 268.654L516.757 324.2L524.109 324.176L523.928 268.63Z" fill="#4F9D5C"/>
<path d="M524.015 268.64L516.664 268.804L519.114 263.412L520.258 260.798L521.565 263.412L524.015 268.64Z" fill="#FF8C64"/>
<path d="M524.175 320.255L516.823 320.279L516.837 324.363L524.188 324.339L524.175 320.255Z" fill="#35252F"/>
<path d="M523.689 327.455H517.318C516.991 327.455 516.828 327.292 516.828 326.965V324.188H524.179V326.965C524.179 327.292 524.016 327.455 523.689 327.455Z" fill="#EF452F"/>
<path d="M521.566 263.414H519.116L520.259 260.8L521.566 263.414Z" fill="#35252F"/>
<path d="M516.821 320.281L524.173 320.257L524.163 317.317L516.811 317.34L516.821 320.281Z" fill="#3C7341"/>
<path d="M518.459 271.418L518.623 312.587C518.623 312.914 518.95 313.078 519.113 313.078C519.44 313.078 519.603 312.751 519.603 312.587L519.44 271.418C519.44 271.091 519.113 270.928 518.95 270.928C518.786 270.928 518.459 271.091 518.459 271.418Z" fill="#3C7341"/>
<path d="M521.402 271.419L521.565 312.589C521.565 312.915 521.892 313.079 522.055 313.079C522.382 313.079 522.545 312.752 522.545 312.589L522.382 271.419C522.382 271.092 522.055 270.929 521.892 270.929C521.565 270.929 521.402 271.092 521.402 271.419Z" fill="#3C7341"/>
<path d="M536.732 269.476L529.453 268.442L521.637 323.439L528.916 324.473L536.732 269.476Z" fill="#1B6BFE"/>
<path d="M536.758 269.459L529.407 268.478L532.511 263.577L534.145 261.127L535.125 263.904L536.758 269.459Z" fill="#FF8C64"/>
<path d="M529.509 320.522L522.23 319.488L521.656 323.532L528.935 324.566L529.509 320.522Z" fill="#35252F"/>
<path d="M527.936 327.619L521.565 326.639C521.238 326.639 521.075 326.312 521.075 326.149L521.401 323.372L528.753 324.352L528.426 327.129C528.426 327.456 528.263 327.619 527.936 327.619Z" fill="#EF452F"/>
<path d="M535.125 263.904L532.511 263.577L534.145 261.127L535.125 263.904Z" fill="#35252F"/>
<path d="M522.182 319.371L529.46 320.406L529.874 317.494L522.595 316.46L522.182 319.371Z" fill="#1B48CA"/>
<path d="M530.876 271.419L525.158 312.099C525.158 312.426 525.322 312.752 525.648 312.752C525.975 312.752 526.302 312.589 526.302 312.262L532.02 271.583C532.02 271.256 531.856 270.929 531.53 270.929C531.203 270.929 530.876 271.093 530.876 271.419Z" fill="#1B48CA"/>
<path d="M533.655 271.909L527.937 312.589C527.937 312.916 528.1 313.242 528.427 313.242C528.754 313.242 529.081 313.079 529.081 312.752L534.799 272.073C534.799 271.746 534.635 271.419 534.309 271.419C533.982 271.256 533.818 271.583 533.655 271.909Z" fill="#1B48CA"/>
<path d="M539.211 290.697L538.721 293.638L538.394 296.415L537.904 300.5L537.577 303.114L536.923 307.361L536.597 309.975L536.107 314.06L535.78 316.673L535.29 320.921L534.963 323.535L534.309 327.783L533.983 330.233L533.656 332.521H504.739L504.412 330.233L504.086 327.783L503.596 323.535L503.269 320.921L502.779 316.673L502.452 314.06L501.798 309.975L501.472 307.361L500.982 303.114L500.655 300.5L500.165 296.415L499.838 293.638L499.348 290.697H539.211Z" fill="#EF452F"/>
<path d="M538.719 293.638L538.393 296.415H500.164L499.837 293.638H538.719Z" fill="#AD2F24"/>
<path d="M537.904 300.5L537.577 303.114H500.982L500.655 300.5H537.904Z" fill="#AD2F24"/>
<path d="M536.922 307.36L536.596 309.974H501.797L501.471 307.36H536.922Z" fill="#AD2F24"/>
<path d="M536.105 314.059L535.778 316.673H502.777L502.45 314.059H536.105Z" fill="#AD2F24"/>
<path d="M535.288 320.922L534.961 323.536H503.594L503.267 320.922H535.288Z" fill="#AD2F24"/>
<path d="M534.307 327.781L533.98 330.232H504.41L504.083 327.781H534.307Z" fill="#AD2F24"/>
<path d="M213.965 99.1667C239.68 99.1667 260.526 78.3206 260.526 52.6057C260.526 26.8908 239.68 6.0448 213.965 6.0448C188.251 6.0448 167.405 26.8908 167.405 52.6057C167.405 78.3206 188.251 99.1667 213.965 99.1667Z" fill="#FFCDB3"/>
<path d="M213.966 93.1219C239.681 93.1219 260.527 72.2759 260.527 46.561C260.527 20.846 239.681 0 213.966 0C188.251 0 167.405 20.846 167.405 46.561C167.405 72.2759 188.251 93.1219 213.966 93.1219Z" fill="#EF452F"/>
<path d="M213.964 84.4623C234.876 84.4623 251.866 67.4717 251.866 46.5601C251.866 25.6485 234.876 8.65784 213.964 8.65784C193.053 8.65784 176.062 25.6485 176.062 46.5601C176.062 67.4717 193.053 84.4623 213.964 84.4623Z" fill="white"/>
<path d="M176.062 46.5601C176.062 47.5403 176.062 48.5205 176.225 49.5008C177.696 30.0595 194.196 14.5392 213.964 14.5392C233.895 14.5392 250.233 29.8962 251.703 49.5008C251.703 48.5205 251.866 47.5403 251.866 46.5601C251.866 25.6485 234.876 8.65784 213.964 8.65784C193.053 8.65784 176.062 25.6485 176.062 46.5601Z" fill="#FFDECB"/>
<path d="M213.965 50.482C214.292 50.482 214.619 50.3186 214.782 50.1553L233.406 25.1594C233.733 24.6693 233.57 24.1792 233.243 23.8524C232.753 23.5257 232.263 23.689 231.936 24.0158L213.802 48.5216L193.054 39.3727C192.563 39.2094 192.073 39.3727 191.747 39.8629C191.583 40.353 191.747 40.8431 192.237 41.1698L213.475 50.482C213.638 50.482 213.802 50.482 213.965 50.482Z" fill="#35252F"/>
<path d="M493.165 301.607L454.268 433.049C452.48 438.862 447.115 442.885 441.154 442.885L283.184 443.332C274.838 443.332 268.132 436.328 268.579 427.982C269.026 420.233 275.434 414.123 283.184 414.123H343.54L391.974 279.401H476.473C488.098 279.401 496.443 290.578 493.165 301.607Z" fill="#FFD66B"/>
<path d="M395.402 425.598C375.566 425.598 359.486 425.331 359.486 425.002C359.486 424.672 375.566 424.406 395.402 424.406C415.238 424.406 431.318 424.672 431.318 425.002C431.318 425.331 415.238 425.598 395.402 425.598Z" fill="#263238"/>
<path d="M481.54 283.574C481.242 283.425 470.512 314.87 457.547 353.916C444.581 392.812 434.298 424.406 434.596 424.555C434.894 424.704 445.624 393.259 458.59 354.214C471.555 315.317 481.838 283.574 481.54 283.574Z" fill="#263238"/>
<path d="M366.044 559.724L375.731 559.426V442.886H366.044V559.724Z" fill="#FFD66B"/>
<path d="M415.67 559.127H326.104L366.64 545.118H376.326L415.67 559.127Z" fill="#FFD66B"/>
<path d="M438.324 249.147L423.57 323.214L426.253 378.802L326.553 362.26L330.428 313.677L330.577 273.439L306.136 320.83L287.06 284.02L321.933 220.981C328.341 214.424 335.793 209.506 344.734 206.227C349.056 204.588 353.676 203.694 359.041 203.545C370.516 207.121 381.991 207.121 393.616 203.545C394.957 203.694 396.894 203.843 399.428 204.141C399.577 204.141 399.726 204.141 399.875 204.141C421.037 206.674 437.132 224.26 438.324 245.571V249.147Z" fill="#605BFF"/>
<path d="M399.279 204.14C399.279 204.14 440.261 204.438 445.328 247.657L446.073 279.4L410.754 279.102L399.279 204.14Z" fill="#605BFF"/>
<path d="M301.366 259.729C301.366 260.027 333.556 260.325 373.347 260.325C413.138 260.325 445.328 260.027 445.328 259.729C445.328 259.43 413.138 259.132 373.347 259.132C333.556 259.132 301.366 259.43 301.366 259.729Z" fill="#FAFAFA"/>
<path d="M301.366 266.584C301.366 266.882 333.556 267.18 373.347 267.18C413.138 267.18 445.328 266.882 445.328 266.584C445.328 266.286 413.138 265.988 373.347 265.988C333.556 265.988 301.366 266.286 301.366 266.584Z" fill="#FAFAFA"/>
<path d="M303.751 254.066C303.751 254.364 335.494 254.662 374.539 254.662C413.585 254.662 445.328 254.364 445.328 254.066C445.328 253.768 413.585 253.47 374.539 253.47C335.345 253.47 303.751 253.768 303.751 254.066Z" fill="#FAFAFA"/>
<path d="M331.024 320.831C331.322 320.831 331.173 303.245 330.726 281.636C330.279 260.027 329.683 242.442 329.236 242.442C328.937 242.442 329.087 260.027 329.534 281.636C330.13 303.245 330.726 320.831 331.024 320.831Z" fill="#263238"/>
<path d="M345.032 292.366C345.032 292.366 325.658 293.708 322.231 298.924C318.803 303.99 313.438 318.595 315.375 318.744C317.462 318.893 318.803 317.701 318.803 317.701L324.168 308.312C324.168 308.312 323.274 317.403 326.552 317.552C329.682 317.701 345.479 320.831 345.479 320.831L345.032 292.366Z" fill="#FFBE9D"/>
<path d="M445.925 270.905V320.83C445.328 332.454 434.3 340.799 422.974 338.415L344.883 322.32L345.032 290.279L412.393 303.244L413.287 269.415L445.925 270.905Z" fill="#605BFF"/>
<path d="M401.364 334.392C401.364 334.392 401.066 334.243 400.321 334.094C399.576 333.945 398.533 333.647 397.341 333.349C394.658 332.753 390.783 332.007 385.865 330.964C375.881 328.878 361.872 326.046 345.181 322.619L345.628 323.066C345.628 313.081 345.628 301.904 345.628 290.131L345.032 290.727C349.503 291.621 354.122 292.515 358.742 293.409C378.414 297.135 396.893 300.712 412.392 303.692L412.989 303.841V303.245C412.541 288.342 412.094 275.973 411.796 267.18C411.647 262.858 411.498 259.58 411.349 257.195C411.349 256.152 411.2 255.258 411.2 254.513C411.2 253.917 411.051 253.619 411.051 253.619C411.051 253.619 411.051 253.917 411.051 254.513C411.051 255.258 411.051 256.003 411.051 257.195C411.051 259.58 411.2 263.007 411.2 267.329C411.349 276.122 411.647 288.491 412.094 303.394L412.69 302.947C397.192 299.966 378.712 296.39 359.04 292.515C354.271 291.621 349.652 290.727 345.33 289.833L344.734 289.683V290.28C344.734 302.053 344.734 313.081 344.734 323.215V323.662L345.181 323.811C361.872 327.09 375.881 329.772 385.865 331.709C390.783 332.604 394.658 333.349 397.341 333.796C398.682 333.945 399.576 334.243 400.47 334.392C401.066 334.392 401.364 334.392 401.364 334.392Z" fill="#263238"/>
<path d="M356.507 204.141C356.507 204.141 356.358 204.439 356.209 204.886C356.06 205.333 355.762 206.079 355.613 207.122C355.166 209.059 355.017 212.04 355.911 215.467C356.805 218.895 359.189 222.77 362.617 225.899C366.194 229.178 371.261 231.264 376.775 231.264C382.289 231.264 387.505 229.029 390.783 225.601C394.062 222.174 395.552 217.852 395.999 214.275C396.447 210.698 395.701 207.718 394.956 205.93C394.658 205.035 394.211 204.29 393.913 203.843C393.615 203.396 393.466 203.098 393.466 203.247C393.317 203.247 393.913 204.29 394.509 206.079C395.105 207.867 395.552 210.698 395.105 214.126C394.658 217.554 393.168 221.577 389.889 224.856C386.76 228.135 381.842 230.221 376.626 230.221C371.41 230.221 366.492 228.284 363.064 225.154C359.637 222.174 357.401 218.597 356.358 215.169C355.315 211.891 355.464 208.91 355.613 207.122C356.358 205.184 356.656 204.141 356.507 204.141Z" fill="#263238"/>
<path d="M352.78 324.854C352.929 324.854 352.929 322.917 352.78 319.936C352.631 316.956 352.482 312.783 352.482 308.163C352.482 303.543 352.482 299.37 352.631 296.39C352.78 293.409 352.78 291.472 352.631 291.472C352.482 291.472 352.184 293.26 351.886 296.39C351.588 299.37 351.439 303.692 351.439 308.312C351.439 312.932 351.737 317.105 352.035 320.234C352.333 323.066 352.631 325.003 352.78 324.854Z" fill="#FAFAFA"/>
<path d="M356.805 325.749C356.954 325.749 356.954 323.811 356.954 320.831C356.954 317.403 356.805 313.379 356.805 309.057C356.805 304.736 356.805 300.712 356.805 297.284C356.805 294.304 356.805 292.366 356.656 292.366C356.507 292.366 356.209 294.155 356.06 297.284C355.911 300.265 355.762 304.438 355.762 309.057C355.762 313.677 355.911 317.85 356.209 320.831C356.358 323.96 356.656 325.749 356.805 325.749Z" fill="#FAFAFA"/>
<path d="M278.564 524.105L263.81 564.79L242.797 593.552C241.307 595.639 241.903 598.619 243.99 599.961C245.182 600.706 246.672 600.855 248.013 600.259C256.508 596.682 287.506 583.717 288.4 580.736C289.443 577.159 309.413 533.494 309.413 533.494L278.564 524.105Z" fill="#EF37FF"/>
<g opacity="0.6">
<g opacity="0.6">
<path d="M244.139 599.962L289.592 578.054L288.996 579.694C288.4 581.184 287.357 582.376 286.015 583.121C282.29 585.059 271.858 590.424 248.46 600.26C246.97 600.856 245.331 600.707 244.139 599.962Z" fill="#93079F"/>
</g>
</g>
<g opacity="0.6">
<g opacity="0.6">
<g opacity="0.6">
<path opacity="0.6" d="M286.463 561.81C285.122 562.108 284.227 563.45 284.526 564.791C284.824 566.132 286.165 567.026 287.506 566.728C288.847 566.43 289.891 564.791 289.592 563.599C289.145 562.406 287.506 561.363 286.314 561.959" fill="white"/>
</g>
</g>
</g>
<path d="M260.234 585.952C259.936 585.952 259.936 583.567 257.849 581.481C255.912 579.395 253.528 579.097 253.528 578.799C253.528 578.65 254.124 578.501 255.167 578.799C256.21 579.097 257.402 579.693 258.594 580.885C259.638 582.077 260.234 583.418 260.383 584.462C260.532 585.356 260.383 585.952 260.234 585.952Z" fill="#263238"/>
<path d="M255.168 590.274C254.87 590.423 254.125 588.486 252.336 587.144C250.548 585.654 248.611 585.356 248.611 585.058C248.611 584.76 250.846 584.76 252.932 586.399C255.019 587.889 255.466 590.125 255.168 590.274Z" fill="#263238"/>
<path d="M268.281 581.035C267.983 581.184 266.791 578.352 264.109 575.968C261.426 573.434 258.595 572.54 258.744 572.242C258.744 571.944 262.022 572.54 264.854 575.223C267.685 577.905 268.43 581.035 268.281 581.035Z" fill="#263238"/>
<path d="M273.795 569.112C273.646 569.261 271.709 567.473 268.877 566.281C266.046 564.939 263.512 564.79 263.512 564.641C263.512 564.343 266.195 564.194 269.324 565.535C272.305 566.728 273.944 568.963 273.795 569.112Z" fill="#263238"/>
<path d="M278.415 557.339C278.266 557.488 276.478 555.253 273.348 554.209C270.219 553.017 267.536 553.762 267.536 553.464C267.536 553.315 268.132 553.017 269.325 552.868C270.517 552.719 272.156 552.719 273.796 553.315C275.435 553.911 276.776 554.805 277.521 555.7C278.266 556.594 278.415 557.19 278.415 557.339Z" fill="#263238"/>
<path d="M274.242 551.974C274.242 551.974 274.242 551.378 274.838 550.484C275.286 549.59 276.18 548.249 277.67 546.907C278.415 546.311 279.16 545.566 280.501 545.417C281.098 545.417 281.992 545.864 282.29 546.46C282.588 547.205 282.439 547.95 282.29 548.547C281.247 551.08 278.117 552.719 275.136 551.974C272.156 551.229 270.219 548.547 269.92 545.864C269.92 545.268 269.92 544.374 270.517 543.927C271.113 543.331 272.007 543.331 272.603 543.778C273.795 544.374 274.242 545.417 274.689 546.162C275.584 547.801 276.031 549.292 276.18 550.335C276.329 551.378 276.329 551.974 276.329 551.974C276.18 551.974 276.031 549.59 274.093 546.46C273.646 545.715 273.05 544.821 272.156 544.374C271.709 544.225 271.262 544.225 271.113 544.523C270.815 544.821 270.666 545.268 270.815 545.864C271.113 548.099 272.901 550.484 275.435 551.08C277.968 551.676 280.8 550.335 281.545 548.249C281.694 547.801 281.843 547.205 281.694 546.758C281.545 546.311 281.247 546.162 280.8 546.162C279.905 546.162 279.011 546.758 278.266 547.354C275.136 549.739 274.391 552.123 274.242 551.974Z" fill="#263238"/>
<path d="M216.27 513.524L217.612 546.608C217.612 546.608 184.527 558.977 184.08 565.088L248.162 564.939L248.312 513.375L216.27 513.524Z" fill="#EF37FF"/>
<g opacity="0.6">
<g opacity="0.6">
<path opacity="0.6" d="M237.431 543.777C238.623 544.075 239.518 545.565 239.22 546.757C238.922 547.949 237.58 548.844 236.239 548.546C235.047 548.248 233.855 546.608 234.302 545.416C234.749 544.224 236.388 543.181 237.58 543.926" fill="white"/>
</g>
</g>
<g opacity="0.6">
<path d="M248.163 564.939V559.872L186.465 561.958C186.465 561.958 183.634 563.15 183.932 565.237L248.163 564.939Z" fill="#93079F"/>
</g>
<path d="M216.568 546.31C216.568 546.608 218.208 546.757 219.698 547.8C221.337 548.694 222.082 550.185 222.38 550.036C222.678 550.036 222.231 548.098 220.294 546.906C218.357 545.565 216.419 546.012 216.568 546.31Z" fill="#263238"/>
<path d="M209.861 548.992C209.861 549.291 211.202 549.887 212.246 551.079C213.289 552.42 213.587 553.761 213.885 553.761C214.183 553.761 214.332 551.973 212.991 550.334C211.65 548.843 209.861 548.694 209.861 548.992Z" fill="#263238"/>
<path d="M205.987 557.04C206.285 557.04 206.732 555.55 205.838 553.761C205.093 551.973 203.602 551.377 203.453 551.675C203.304 551.973 204.198 552.867 204.944 554.208C205.54 555.699 205.689 557.04 205.987 557.04Z" fill="#263238"/>
<path d="M217.015 538.71C217.164 539.008 218.654 538.561 220.294 538.71C222.082 538.859 223.423 539.306 223.572 539.157C223.721 538.859 222.38 537.815 220.294 537.666C218.356 537.368 216.866 538.412 217.015 538.71Z" fill="#263238"/>
<g opacity="0.3">
<path opacity="0.3" d="M216.569 520.081L216.718 525.893L248.312 525.595V520.23L216.569 520.081Z" fill="black"/>
</g>
<path d="M216.866 532.004C216.866 532.153 218.058 532.302 220.145 532.004C221.188 531.855 222.231 531.557 223.572 530.96C224.169 530.662 224.765 530.364 225.361 529.917C225.659 529.768 225.957 529.47 226.255 529.172C226.553 528.874 226.851 527.98 226.404 527.533C226.106 527.086 225.51 526.788 225.063 526.788C224.616 526.788 224.169 526.937 223.87 526.937C223.125 527.086 222.529 527.384 221.933 527.682C220.741 528.278 219.698 529.023 218.953 529.619C217.462 530.961 217.015 532.153 217.015 532.302C217.164 532.451 217.909 531.408 219.4 530.215C220.145 529.619 221.188 529.023 222.231 528.576C222.827 528.278 223.423 528.129 224.02 527.98C224.765 527.831 225.212 527.831 225.51 528.129C225.51 528.278 225.51 528.278 225.51 528.427C225.361 528.576 225.063 528.725 224.765 529.023C224.169 529.321 223.572 529.768 223.125 530.066C222.082 530.662 220.89 530.961 219.996 531.259C218.207 531.706 216.866 531.855 216.866 532.004Z" fill="#263238"/>
<path d="M217.313 532.45C217.462 532.45 218.058 531.407 218.207 529.321C218.207 528.277 218.207 527.085 217.76 525.744C217.611 525.148 217.313 524.403 216.866 523.807C216.419 523.21 215.972 522.316 214.78 522.167C214.183 522.167 213.587 522.614 213.438 523.061C213.289 523.508 213.14 523.807 213.14 524.254C212.991 524.999 212.991 525.744 213.14 526.489C213.289 527.83 213.885 529.023 214.482 529.768C215.674 531.407 217.015 531.854 217.015 531.705C217.164 531.556 215.972 530.96 215.078 529.321C214.631 528.575 214.183 527.532 214.034 526.34C214.034 525.744 214.034 525.148 214.034 524.552C214.183 523.807 214.333 523.359 214.631 523.359C214.929 523.359 215.525 523.807 215.823 524.403C216.121 524.999 216.419 525.595 216.568 526.191C217.015 527.383 217.164 528.426 217.164 529.321C217.462 531.258 217.164 532.45 217.313 532.45Z" fill="#263238"/>
<path d="M248.311 355.108C286.164 358.982 336.387 364.198 336.387 364.198L329.532 425.896C329.532 425.896 255.763 406.373 256.21 408.013C256.806 409.652 252.782 539.307 252.782 539.307H208.372L207.478 392.514C207.329 370.309 226.255 352.872 248.311 355.108Z" fill="#030229"/>
<path d="M427.146 379.995V399.071C427.146 412.036 412.243 425.896 399.277 425.896H389.143C381.245 425.896 368.726 420.084 362.318 415.464L358.444 412.632L312.096 555.997C312.096 555.997 259.191 546.459 259.191 544.82C259.191 543.181 295.107 427.386 311.649 373.587C318.355 351.68 341.901 338.863 363.66 346.315C364.405 346.613 365.15 346.911 365.895 347.209C389.59 356.896 427.146 379.995 427.146 379.995Z" fill="#030229"/>
<path d="M259.34 544.969C259.34 544.969 259.489 544.82 259.638 544.522C259.787 544.075 259.936 543.628 260.234 543.032C260.681 541.691 261.426 539.753 262.321 537.071C264.109 531.855 266.493 524.403 269.474 515.015C275.435 496.386 283.334 470.455 291.977 441.842C296.299 427.535 300.323 413.824 304.048 401.455C305.837 395.196 307.625 389.384 309.264 383.87C310.159 381.038 310.904 378.505 311.649 375.822C312.394 373.289 313.139 370.755 314.033 368.52C315.822 364.049 318.653 360.621 321.485 357.939C324.316 355.256 326.999 353.319 329.383 351.829C331.619 350.338 333.407 349.146 334.748 348.401C335.344 348.103 335.791 347.805 336.09 347.507C336.388 347.358 336.537 347.209 336.537 347.209C336.537 347.209 336.388 347.209 336.09 347.507C335.642 347.656 335.195 347.954 334.599 348.252C333.258 348.997 331.47 350.04 329.234 351.531C326.85 353.021 324.167 354.958 321.187 357.492C318.355 360.174 315.375 363.602 313.437 368.222C312.394 370.457 311.649 372.991 310.904 375.524C310.159 378.058 309.264 380.74 308.519 383.423C306.88 388.937 305.092 394.898 303.154 401.008C299.429 413.377 295.256 427.088 290.934 441.395C282.29 470.008 274.541 495.79 268.878 514.716C266.046 523.956 263.662 531.557 262.023 536.922C261.277 539.455 260.532 541.542 260.085 542.883C259.936 543.479 259.787 544.075 259.638 544.522C259.34 544.671 259.34 544.969 259.34 544.969Z" fill="#455A64"/>
<path d="M248.163 389.533C247.865 389.682 250.398 393.556 252.485 398.623C254.571 403.69 255.465 408.161 255.912 408.161C256.21 408.161 255.763 403.541 253.528 398.176C251.292 392.811 248.312 389.235 248.163 389.533Z" fill="#455A64"/>
<path d="M239.668 395.493C239.519 395.791 243.394 397.431 247.269 400.56C251.292 403.69 253.826 406.968 254.124 406.819C254.422 406.67 252.187 402.945 248.014 399.666C243.841 396.387 239.668 395.195 239.668 395.493Z" fill="#455A64"/>
<path d="M311.798 556.146C312.096 556.295 324.615 517.846 339.667 470.455C354.867 423.064 366.79 384.465 366.492 384.465C366.194 384.316 353.675 422.766 338.623 470.157C323.571 517.548 311.5 555.997 311.798 556.146Z" fill="#455A64"/>
<path d="M368.577 332.455L217.015 333.946L188.849 254.067L298.981 254.812L324.614 326.643L368.577 327.239V332.455Z" fill="#26C0E2"/>
<path d="M252.783 300.862C249.408 300.862 246.673 298.127 246.673 294.752C246.673 291.378 249.408 288.642 252.783 288.642C256.158 288.642 258.893 291.378 258.893 294.752C258.893 298.127 256.158 300.862 252.783 300.862Z" fill="white"/>
<path d="M380.944 116.364C379.454 110.999 375.579 108.466 370.363 106.677C365.147 104.889 359.037 105.932 354.715 109.211C351.735 111.446 349.499 114.725 346.072 115.917C340.409 117.855 333.702 113.682 328.188 116.215C324.91 117.706 323.121 121.729 323.866 125.157C324.761 128.585 328.188 131.267 331.765 131.118C328.039 132.459 326.847 137.824 329.082 141.103C331.318 144.382 335.789 145.723 339.663 144.978C343.538 144.233 346.966 141.848 349.946 139.166C352.927 136.483 355.609 133.503 358.739 131.118C361.869 128.734 365.743 126.945 369.767 127.094C375.132 127.392 379.752 131.416 382.136 136.185C384.521 140.954 385.117 146.468 385.415 151.833C385.713 157.198 385.862 162.712 387.352 167.779C387.501 168.375 387.8 169.12 388.396 169.269C389.29 169.567 390.035 168.673 390.482 167.779C395.4 158.688 398.53 148.703 399.573 138.42C400.169 132.459 400.02 126.796 396.741 121.878C393.314 116.811 384.968 113.086 380.944 116.364Z" fill="#030229"/>
<path d="M391.376 141.252L394.059 201.609C394.506 211.892 393.165 227.093 376.92 227.093C362.763 226.049 358.59 212.786 358.292 203.248C358.143 198.777 357.845 194.903 357.845 194.455C357.845 194.455 342.495 193.71 340.558 178.509C339.663 171.207 339.067 156.006 338.769 142.147C338.322 127.393 349.499 114.725 364.104 113.235L365.594 113.086C381.54 112.341 390.929 125.306 391.376 141.252Z" fill="#FFAA8C"/>
<path d="M357.695 194.158C357.695 194.158 367.382 193.86 376.92 186.408C376.92 186.408 373.343 197.884 358.142 198.033L357.695 194.158Z" fill="#EB996E"/>
<path d="M344.281 151.833C344.43 153.025 345.473 153.919 346.666 153.77C347.858 153.77 348.752 152.727 348.752 151.535C348.603 150.343 347.56 149.449 346.368 149.598C345.026 149.747 344.132 150.641 344.281 151.833Z" fill="#263238"/>
<path d="M342.791 149.299C343.089 149.597 344.579 148.107 346.964 147.958C349.348 147.66 351.136 148.703 351.285 148.405C351.434 148.256 351.136 147.809 350.242 147.362C349.497 146.915 348.156 146.467 346.666 146.617C345.175 146.766 343.983 147.511 343.387 148.107C342.791 148.554 342.642 149.15 342.791 149.299Z" fill="#263238"/>
<path d="M367.232 150.193C367.381 151.385 368.424 152.279 369.616 152.13C370.809 152.13 371.703 151.087 371.703 149.895C371.554 148.703 370.511 147.809 369.318 147.958C367.977 148.107 367.083 149.001 367.232 150.193Z" fill="#263238"/>
<path d="M365.743 147.213C366.041 147.511 367.531 146.021 369.916 145.872C372.3 145.574 374.088 146.617 374.237 146.319C374.386 146.17 374.088 145.723 373.194 145.276C372.449 144.829 371.108 144.382 369.617 144.531C368.127 144.68 366.935 145.425 366.339 146.021C365.743 146.617 365.594 147.064 365.743 147.213Z" fill="#263238"/>
<path d="M359.185 165.394C359.185 165.245 357.694 165.096 355.31 165.096C354.714 165.096 354.118 165.096 353.969 164.649C353.82 164.202 353.969 163.606 354.118 162.861C354.565 161.37 355.012 159.731 355.459 158.092C357.247 151.385 358.44 145.871 358.141 145.871C357.843 145.871 356.204 151.236 354.416 157.943C353.969 159.582 353.522 161.221 353.224 162.712C353.075 163.457 352.776 164.202 353.224 165.096C353.373 165.543 353.969 165.841 354.267 165.841C354.714 165.99 355.012 165.841 355.31 165.841C357.694 165.692 359.185 165.543 359.185 165.394Z" fill="#263238"/>
<path d="M366.19 166.288C365.743 166.288 366.041 168.822 364.103 170.908C362.166 172.995 359.334 172.995 359.483 173.293C359.483 173.442 360.08 173.74 361.272 173.591C362.464 173.442 363.954 172.995 365.146 171.802C366.339 170.61 366.786 168.971 366.786 167.928C366.637 166.885 366.339 166.288 366.19 166.288Z" fill="#263238"/>
<path d="M364.104 138.123C364.402 138.719 366.638 138.123 369.469 138.272C372.301 138.272 374.536 138.868 374.834 138.272C374.983 137.974 374.536 137.378 373.493 136.931C372.599 136.483 371.108 136.036 369.469 136.036C367.83 136.036 366.34 136.483 365.445 136.931C364.551 137.378 364.104 137.825 364.104 138.123Z" fill="#263238"/>
<path d="M342.942 142.444C343.389 142.891 345.028 142.146 346.816 141.997C348.754 141.699 350.393 141.997 350.691 141.401C350.84 141.103 350.542 140.656 349.797 140.209C349.052 139.762 347.86 139.464 346.518 139.613C345.177 139.762 344.134 140.358 343.538 140.954C342.942 141.55 342.793 142.146 342.942 142.444Z" fill="#263238"/>
<path d="M391.228 152.579C391.526 152.43 401.362 148.406 402.107 158.838C402.852 169.27 392.271 167.929 392.271 167.63C392.271 167.183 391.228 152.579 391.228 152.579Z" fill="#FFBE9D"/>
<path d="M395.102 163.309C395.102 163.309 395.251 163.458 395.549 163.607C395.847 163.756 396.443 163.756 396.89 163.607C397.934 163.16 398.828 161.372 398.679 159.434C398.679 158.54 398.381 157.646 397.934 156.901C397.486 156.156 397.039 155.709 396.443 155.56C395.847 155.41 395.549 155.858 395.4 156.156C395.251 156.454 395.4 156.603 395.251 156.752C395.251 156.752 394.953 156.603 395.102 156.156C395.102 156.007 395.251 155.709 395.4 155.41C395.698 155.261 395.996 155.112 396.443 155.112C397.188 155.112 398.083 155.858 398.53 156.603C398.977 157.348 399.275 158.391 399.424 159.434C399.573 161.521 398.53 163.607 397.188 164.054C396.443 164.352 395.847 164.054 395.549 163.905C395.251 163.607 395.102 163.458 395.102 163.309Z" fill="#EB996E"/>
<path d="M335.193 139.315C342.049 140.358 349.351 137.825 354.12 132.907C357.547 129.33 359.783 124.561 364.254 122.624C367.234 121.283 370.811 121.581 373.792 122.922C376.772 124.263 379.306 126.35 381.69 128.734C379.604 136.782 382.435 145.127 385.267 152.877C385.565 153.771 386.012 154.665 386.757 155.112C388.098 155.857 389.887 154.963 390.781 153.771C392.271 151.834 392.718 149.151 392.867 146.767C393.314 141.104 392.867 135.291 390.93 129.926C389.141 124.561 385.863 119.643 381.392 116.067C375.729 111.745 368.427 109.957 361.273 110.851C354.12 111.745 347.563 115.024 342.496 119.942C340.111 122.177 337.876 124.859 336.982 127.989" fill="#030229"/>
<path d="M541.6 477.113C536.235 474.431 529.976 473.984 524.163 475.027C521.034 475.623 517.755 476.517 515.52 478.902C513.433 481.286 512.986 485.459 515.371 487.545C516.861 488.738 518.947 488.887 520.885 488.887C525.505 488.887 530.572 487.993 534.297 490.824C536.384 492.463 537.874 494.997 540.258 495.891C542.792 496.636 545.474 495.146 546.816 492.91C548.157 490.675 548.157 487.843 547.561 485.459C547.71 485.31 546.965 479.796 541.6 477.113Z" fill="#3A974C"/>
<path d="M553.819 453.567C550.54 458.187 544.281 456.696 541.301 453.865C538.32 451.033 537.128 446.86 535.936 442.986C533.402 434.044 530.72 424.655 532.657 415.565C533.253 412.882 534.296 410.2 536.234 408.113C538.171 406.027 541.152 404.835 543.834 405.58C546.964 406.474 549.05 409.603 550.391 412.435C554.564 421.228 556.8 430.765 556.8 440.452C556.949 445.072 556.352 449.841 553.819 453.567Z" fill="#3A974C"/>
<path d="M562.761 460.273C559.184 456.1 558.588 449.99 560.078 444.774C561.717 439.558 565.145 435.087 569.318 431.362C574.087 427.04 579.75 423.761 585.86 421.675C588.244 420.781 590.778 420.185 593.311 420.483C595.845 420.781 598.378 421.973 599.571 424.208C601.359 427.487 599.571 431.511 597.782 434.789C594.653 440.601 590.927 446.115 586.903 451.331C583.625 455.504 579.899 459.677 574.981 461.465C570.063 463.403 564.847 463.105 562.313 459.677" fill="#3A974C"/>
<path d="M554.117 523.61C554.117 523.61 553.968 522.865 553.819 521.523C553.67 520.033 553.521 518.096 553.223 515.711C552.925 513.327 552.627 510.346 551.882 507.217C551.286 504.087 550.093 500.659 548.752 497.232C547.411 493.804 545.623 490.675 543.685 488.29C541.748 485.757 539.363 483.968 537.277 482.925C535.191 481.882 533.253 481.435 531.912 481.286C530.571 481.137 529.826 480.988 529.826 480.988C529.826 480.988 530.571 480.988 531.912 480.988C533.253 481.137 535.34 481.435 537.575 482.478C539.81 483.521 542.344 485.309 544.43 487.843C546.517 490.376 548.305 493.506 549.646 497.083C550.988 500.51 552.031 503.938 552.627 507.217C553.223 510.346 553.521 513.327 553.819 515.711C553.968 518.096 554.117 520.182 554.117 521.523C554.117 522.865 554.117 523.61 554.117 523.61Z" fill="#263238"/>
<path d="M553.67 519.139C553.67 519.139 553.67 518.841 553.67 518.096C553.67 517.351 553.67 516.457 553.67 515.264C553.67 512.88 553.67 509.303 553.521 504.981C553.372 496.338 552.627 486.949 551.137 473.834C549.795 461.465 548.007 447.009 546.07 437.621C545.623 435.534 545.175 433.597 544.877 431.958C544.43 430.318 544.132 428.828 543.834 427.636C543.536 426.593 543.387 425.698 543.238 424.953C543.089 424.357 543.089 424.059 543.089 424.059C543.089 424.059 543.238 424.357 543.387 424.953C543.536 425.698 543.834 426.593 544.132 427.636C544.43 428.828 544.877 430.169 545.325 431.958C545.772 433.597 546.219 435.534 546.666 437.621C548.603 446.115 550.541 458.038 552.031 471.152C553.521 484.416 554.117 496.338 554.117 505.13C554.117 509.452 554.117 513.029 553.968 515.413C553.968 516.606 553.819 517.5 553.819 518.245C553.67 518.841 553.67 519.139 553.67 519.139Z" fill="#263238"/>
<path d="M553.67 495.89C553.67 495.89 553.67 494.847 553.67 492.91C553.819 490.973 553.968 488.29 554.564 485.011C555.16 481.733 555.905 477.709 557.097 473.536C557.694 471.599 558.886 466.83 561.866 459.826C565.89 450.288 571.255 442.538 576.024 437.769C577.067 436.428 578.408 435.534 579.303 434.64C579.75 434.193 580.197 433.746 580.793 433.448C581.24 433.15 581.687 432.852 582.134 432.553C583.624 431.51 584.519 430.914 584.668 430.914C584.817 431.063 581.24 433.299 576.62 438.068C572 442.985 566.784 450.586 562.76 459.975C560.525 465.042 559.035 469.661 557.843 473.536C556.65 477.709 555.756 481.733 555.16 485.011C554.564 488.29 554.266 490.973 553.968 492.91C553.819 494.996 553.67 495.89 553.67 495.89Z" fill="#263238"/>
<path d="M576.025 536.873L573.64 568.616H532.807L530.422 536.873H576.025Z" fill="#FFD66B"/>
<path d="M525.503 524.355H579.898V536.873H525.503V524.355Z" fill="#FFD66B"/>
<path d="M574.072 574.605L576.466 568.644H530.268L532.944 574.605H574.072Z" fill="#FFD66B"/>
<path d="M531.316 547.157C531.316 547.157 531.316 547.306 531.465 547.455C531.614 547.604 531.763 547.902 532.061 548.2C532.657 548.945 533.402 549.988 534.445 551.181L534.594 551.33C536.085 549.243 538.022 546.561 540.406 543.282H540.108C541.897 545.816 543.834 548.498 545.92 551.479L546.069 551.777L546.218 551.479C548.305 548.945 550.689 546.263 553.074 543.282H552.627C552.776 543.431 552.925 543.58 553.074 543.729C555.16 546.412 557.247 548.945 559.184 551.33L559.333 551.628L559.482 551.33C561.568 548.349 563.506 545.667 565.294 543.133H564.996C567.828 546.412 570.212 549.094 572.149 551.181L572.298 551.33L572.447 551.181C573.342 549.541 574.087 548.349 574.683 547.455C574.981 547.008 575.13 546.71 575.279 546.412C575.428 546.114 575.428 546.114 575.428 546.114C575.428 546.114 575.279 546.263 575.13 546.412C574.981 546.71 574.683 547.008 574.534 547.306C573.938 548.2 573.193 549.392 572.149 551.032H572.298C570.51 548.945 568.126 546.114 565.294 542.835L565.145 542.686L564.996 542.835C563.208 545.368 561.27 548.051 559.184 550.883H559.631C557.694 548.498 555.607 545.816 553.521 543.282C553.372 543.133 553.223 542.984 553.074 542.835L552.925 542.537L552.776 542.835C550.391 545.666 548.156 548.498 545.92 551.032H546.367C544.281 548.051 542.344 545.368 540.555 542.984L540.406 542.686L540.257 542.984C538.022 546.263 535.936 549.094 534.594 551.181H534.743C533.7 549.988 532.806 548.945 532.21 548.2C531.912 547.902 531.763 547.604 531.614 547.455C531.316 547.306 531.316 547.157 531.316 547.157Z" fill="#030229"/>
<path d="M552.776 536.873C540.184 536.873 529.975 536.74 529.975 536.575C529.975 536.411 540.184 536.277 552.776 536.277C565.369 536.277 575.578 536.411 575.578 536.575C575.578 536.74 565.369 536.873 552.776 536.873Z" fill="#455A64"/>
<path d="M129.835 187.898L158.15 306.524H150.252L122.234 187.898H129.835Z" fill="#263238"/>
<path d="M140.715 265.988C141.162 268.223 127.749 332.902 127.749 332.902H134.157L144.291 281.636L140.715 265.988Z" fill="#263238"/>
<path d="M46.2289 418.445H179.162V559.425H46.2289V418.445Z" fill="#26C0E2"/>
<path d="M39.5229 439.01H46.0802V445.567H39.5229V439.01Z" fill="#263238"/>
<path d="M39.5229 459.725H46.0802V466.282H39.5229V459.725Z" fill="#263238"/>
<path d="M39.5229 480.589H46.0802V487.146H39.5229V480.589Z" fill="#263238"/>
<path d="M39.5229 501.303H46.0802V507.86H39.5229V501.303Z" fill="#263238"/>
<path d="M39.3735 482.377C39.3735 482.377 38.6283 482.228 37.4361 481.93C36.0948 481.781 34.3065 481.334 31.773 481.334C29.3886 481.334 26.408 481.781 23.7255 483.42C22.3843 484.314 21.043 485.507 20.2979 487.146C19.4037 488.785 19.1057 490.573 19.2547 492.511C19.4037 494.299 19.9998 496.088 20.894 497.578C21.7881 499.068 22.9804 500.26 24.3216 501.154C26.8551 503.092 29.6866 503.837 32.0711 504.284C34.4555 504.582 36.3929 504.582 37.7342 504.433C39.0754 504.284 39.8206 504.135 39.8206 504.135C39.8206 504.135 39.0754 504.135 37.7342 504.135C36.3929 504.135 34.4555 504.135 32.2201 503.688C29.9847 503.241 27.3022 502.347 24.7687 500.558C22.3842 498.77 20.1489 495.789 19.9998 492.362C19.8508 490.573 20.1488 488.934 20.894 487.444C21.6391 485.954 22.8313 484.91 24.0236 484.016C26.557 482.377 29.3886 481.93 31.773 481.781C34.1575 481.781 35.9458 481.93 37.2871 482.079C38.6283 482.377 39.3735 482.526 39.3735 482.377Z" fill="#263238"/>
<path d="M41.0133 461.811C41.0133 461.811 40.8643 461.662 40.4172 461.364C39.9701 461.215 39.374 460.917 38.4799 460.619C36.6915 460.023 34.009 459.576 30.8794 460.172C30.1343 460.321 29.2401 460.619 28.4949 461.066C27.7498 461.513 27.0047 462.408 26.7066 463.451C26.1105 465.388 26.8557 467.624 28.1969 469.412C28.9421 470.306 29.8362 471.051 30.8794 471.498C31.9226 471.945 33.4129 471.945 34.4561 471.349C35.4993 470.753 36.5425 469.561 36.5425 468.22C36.5425 466.878 35.6483 465.537 34.4561 464.941C33.2638 464.345 31.9226 464.345 30.5813 464.494C29.3891 464.792 28.1969 465.388 27.3027 466.133C25.3654 467.624 24.1731 469.859 24.0241 472.094C23.726 474.33 24.6202 476.416 25.6634 478.056C26.8556 479.695 28.3459 480.738 29.6872 481.483C32.6678 482.974 35.3503 483.272 37.1386 483.421C38.0328 483.421 38.7779 483.57 39.225 483.57C39.6721 483.57 39.9701 483.57 39.9701 483.57C39.9701 483.57 38.9269 483.421 37.1386 483.272C35.3503 482.973 32.8168 482.675 29.9852 481.185C28.644 480.44 27.1537 479.397 26.1105 477.907C25.0673 476.416 24.3221 474.479 24.6202 472.393C24.9183 470.306 25.9615 468.369 27.7498 467.027C28.644 466.282 29.6872 465.835 30.7304 465.537C31.7736 465.239 32.9658 465.388 34.009 465.835C35.0522 466.282 35.6483 467.326 35.6483 468.369C35.6483 469.412 34.9032 470.306 34.009 470.902C33.1148 471.498 31.9226 471.498 31.0284 471.051C29.9852 470.753 29.2401 470.008 28.644 469.263C27.3027 467.773 26.7066 465.686 27.1537 463.898C27.6008 462.11 29.2401 461.215 30.8794 460.917C34.009 460.172 36.5425 460.619 38.3308 461.066C40.1192 461.364 41.0133 461.961 41.0133 461.811Z" fill="#263238"/>
<path d="M40.8645 441.544C40.8645 441.544 40.4174 441.395 39.3742 441.246C38.4801 441.246 36.9898 441.246 35.3504 441.842C33.7111 442.438 31.9228 443.481 30.4325 445.12C28.9422 446.909 27.899 449.293 27.899 451.976C27.75 454.658 28.6442 457.192 29.9854 458.98C31.3267 460.768 33.115 461.961 34.7543 462.557C36.3936 463.153 37.7349 463.302 38.6291 463.302C39.5232 463.302 40.1194 463.153 40.1194 463.153C40.1194 463.004 37.8839 463.451 34.9034 461.961C33.4131 461.215 31.7737 460.172 30.5815 458.384C29.2403 456.596 28.4951 454.36 28.6442 451.827C28.7932 449.293 29.6874 447.058 31.0286 445.418C32.3699 443.779 34.1582 442.736 35.6485 442.14C38.7781 441.246 40.8645 441.693 40.8645 441.544Z" fill="#263238"/>
<path d="M139.669 343.632C139.669 343.632 139.073 344.526 138.477 346.315C137.881 348.103 137.285 350.785 136.689 354.362C136.093 357.939 135.645 362.261 135.198 367.179C134.751 372.245 134.304 377.909 133.559 384.317C133.41 385.956 133.112 387.446 132.814 389.086C132.516 390.725 132.069 392.364 131.324 393.855C130.578 395.345 129.386 396.686 128.045 397.878C126.704 399.071 125.362 400.263 123.723 401.157C120.594 403.094 116.868 404.436 112.993 404.883C109.118 405.33 104.946 404.734 101.22 402.796C97.4942 401.008 94.5137 397.431 93.6195 393.258C93.1724 391.172 93.3214 388.937 94.0666 386.85C94.8117 384.764 96.302 383.125 98.2394 381.932C100.028 380.74 102.263 379.995 104.499 379.846C106.734 379.697 109.118 380.293 110.907 381.783C111.801 382.528 112.546 383.274 112.993 384.317C113.44 385.36 113.589 386.403 113.44 387.595C112.993 389.831 111.354 391.768 109.267 392.811C107.181 394.004 104.797 394.451 102.412 394.749C100.028 395.047 97.6432 395.196 95.4078 395.196C90.6389 395.345 86.019 394.898 81.5482 394.451C72.4575 393.407 63.6648 391.917 55.3192 391.917C46.9736 391.768 38.7771 392.96 31.9218 396.388C28.4942 398.027 25.5136 400.263 23.2782 402.945C20.8937 405.628 19.4034 408.757 18.8073 411.887C17.466 418.295 18.9564 424.256 21.3408 428.727C23.8743 433.198 27.3019 436.179 30.1335 438.116C33.114 440.053 35.6475 441.246 37.4358 441.842C39.2242 442.438 40.1184 442.736 40.1184 442.736C40.1184 442.736 39.8203 442.587 39.3732 442.438C38.9261 442.289 38.181 441.991 37.4358 441.693C35.6475 440.947 33.114 439.904 30.2825 437.818C27.451 435.731 24.0233 432.751 21.6388 428.429C19.2544 424.107 17.9132 418.146 19.2544 412.036C19.9996 409.055 21.3408 405.926 23.7253 403.392C25.9607 400.859 28.9412 398.623 32.2198 397.133C38.9261 393.855 46.9736 392.662 55.3192 392.811C63.6648 392.96 72.4575 394.451 81.5482 395.345C86.1681 395.792 90.7879 396.239 95.5568 396.09C97.9413 396.09 100.326 395.941 102.71 395.643C105.095 395.345 107.628 394.898 109.715 393.706C111.95 392.513 113.738 390.427 114.185 387.893C114.483 386.701 114.185 385.36 113.738 384.168C113.142 382.975 112.397 382.081 111.354 381.336C109.416 379.846 106.883 379.25 104.499 379.25C102.114 379.399 99.7296 380.144 97.7923 381.485C95.8549 382.826 94.2156 384.615 93.3214 386.85C92.4272 389.086 92.4273 391.47 92.8743 393.557C93.9175 398.027 97.0471 401.604 100.922 403.541C104.797 405.479 109.118 406.075 112.993 405.628C117.017 405.181 120.743 403.839 124.021 401.902C125.661 400.859 127.151 399.816 128.343 398.474C129.684 397.133 130.877 395.941 131.771 394.302C132.516 392.662 132.963 391.023 133.261 389.384C133.559 387.744 133.857 386.105 134.006 384.615C134.751 378.356 135.198 372.544 135.645 367.477C136.092 362.41 136.54 358.088 136.987 354.66C137.434 351.083 138.03 348.401 138.626 346.613C138.924 345.718 139.073 344.973 139.371 344.675C139.52 343.781 139.669 343.632 139.669 343.632Z" fill="#263238"/>
<path d="M53.6811 553.464C53.6811 553.464 53.6811 553.315 53.6811 552.868C53.6811 552.421 53.6811 551.825 53.6811 551.079C53.6811 549.44 53.6811 547.205 53.6811 544.075C53.6811 537.965 53.6812 529.023 53.8302 517.697C53.8302 495.045 53.9792 462.706 53.9792 423.958L53.6811 424.256C88.8518 424.256 129.984 424.256 173.947 424.256L173.5 423.809C173.5 471.498 173.5 515.909 173.5 553.315L173.798 553.017C137.733 553.017 107.778 553.166 86.7654 553.166C76.1844 553.166 67.9879 553.166 62.3248 553.315C59.4933 553.315 57.4068 553.315 55.9166 553.315C54.4263 553.464 53.6811 553.464 53.6811 553.464C53.6811 553.464 54.4263 553.464 55.9166 553.464C57.4068 553.464 59.4933 553.464 62.3248 553.464C67.9879 553.464 76.1844 553.464 86.6164 553.613C107.629 553.613 137.733 553.762 173.947 553.762H174.245V553.464C174.245 516.058 174.245 471.498 174.245 423.958V423.511H173.798C129.984 423.511 88.8518 423.511 53.5322 423.511H53.2341V423.809C53.2341 462.557 53.3831 495.045 53.3831 517.697C53.3831 529.023 53.3831 537.965 53.5322 544.075C53.5322 547.056 53.5322 549.44 53.5322 550.93C53.5322 551.675 53.5322 552.272 53.5322 552.719C53.6812 553.315 53.6811 553.464 53.6811 553.464Z" fill="#263238"/>
<path d="M88.1059 440.501C87.7767 440.501 87.5098 440.234 87.5098 439.905C87.5098 439.576 87.7767 439.309 88.1059 439.309C88.4351 439.309 88.702 439.576 88.702 439.905C88.702 440.234 88.4351 440.501 88.1059 440.501Z" fill="#263238"/>
<path d="M84.8277 440.501C84.4985 440.501 84.2316 440.234 84.2316 439.904C84.2316 439.575 84.4985 439.308 84.8277 439.308C85.1569 439.308 85.4238 439.575 85.4238 439.904C85.4238 440.234 85.1569 440.501 84.8277 440.501Z" fill="#263238"/>
<path d="M81.3995 440.501C81.0703 440.501 80.8034 440.234 80.8034 439.904C80.8034 439.575 81.0703 439.308 81.3995 439.308C81.7287 439.308 81.9956 439.575 81.9956 439.904C81.9956 440.234 81.7287 440.501 81.3995 440.501Z" fill="#263238"/>
<path d="M77.8785 440.591C77.5493 440.591 77.2824 440.324 77.2824 439.994C77.2824 439.665 77.5493 439.398 77.8785 439.398C78.2077 439.398 78.4746 439.665 78.4746 439.994C78.4746 440.324 78.2077 440.591 77.8785 440.591Z" fill="#263238"/>
<path d="M74.4512 440.591C74.122 440.591 73.8551 440.324 73.8551 439.994C73.8551 439.665 74.122 439.398 74.4512 439.398C74.7804 439.398 75.0474 439.665 75.0474 439.994C75.0474 440.324 74.7804 440.591 74.4512 440.591Z" fill="#263238"/>
<path d="M71.1168 440.501C70.7876 440.501 70.5207 440.234 70.5207 439.904C70.5207 439.575 70.7876 439.308 71.1168 439.308C71.446 439.308 71.7129 439.575 71.7129 439.904C71.7129 440.234 71.446 440.501 71.1168 440.501Z" fill="#263238"/>
<path d="M67.8395 440.501C67.5103 440.501 67.2434 440.234 67.2434 439.904C67.2434 439.575 67.5103 439.308 67.8395 439.308C68.1687 439.308 68.4357 439.575 68.4357 439.904C68.4357 440.234 68.1687 440.501 67.8395 440.501Z" fill="#263238"/>
<path d="M69.3295 442.885C69.0003 442.885 68.7334 442.618 68.7334 442.289C68.7334 441.96 69.0003 441.693 69.3295 441.693C69.6587 441.693 69.9257 441.96 69.9257 442.289C69.9257 442.618 69.6587 442.885 69.3295 442.885Z" fill="#263238"/>
<path d="M72.6628 442.975C72.3336 442.975 72.0667 442.709 72.0667 442.379C72.0667 442.05 72.3336 441.783 72.6628 441.783C72.992 441.783 73.2589 442.05 73.2589 442.379C73.2589 442.709 72.992 442.975 72.6628 442.975Z" fill="#263238"/>
<path d="M76.2385 442.975C75.9093 442.975 75.6424 442.709 75.6424 442.379C75.6424 442.05 75.9093 441.783 76.2385 441.783C76.5677 441.783 76.8346 442.05 76.8346 442.379C76.8346 442.709 76.5677 442.975 76.2385 442.975Z" fill="#263238"/>
<path d="M79.6667 442.975C79.3374 442.975 79.0706 442.709 79.0706 442.379C79.0706 442.05 79.3374 441.783 79.6667 441.783C79.9959 441.783 80.2628 442.05 80.2628 442.379C80.2628 442.709 79.9959 442.975 79.6667 442.975Z" fill="#263238"/>
<path d="M83.1892 442.885C82.86 442.885 82.5931 442.618 82.5931 442.289C82.5931 441.96 82.86 441.693 83.1892 441.693C83.5184 441.693 83.7853 441.96 83.7853 442.289C83.7853 442.618 83.5184 442.885 83.1892 442.885Z" fill="#263238"/>
<path d="M86.7649 442.885C86.4356 442.885 86.1688 442.618 86.1688 442.289C86.1688 441.96 86.4356 441.693 86.7649 441.693C87.0941 441.693 87.361 441.96 87.361 442.289C87.361 442.618 87.0941 442.885 86.7649 442.885Z" fill="#263238"/>
<path d="M88.1063 445.418C87.7771 445.418 87.5102 445.151 87.5102 444.822C87.5102 444.493 87.7771 444.226 88.1063 444.226C88.4355 444.226 88.7024 444.493 88.7024 444.822C88.7024 445.151 88.4355 445.418 88.1063 445.418Z" fill="#263238"/>
<path d="M84.8277 445.418C84.4985 445.418 84.2316 445.151 84.2316 444.822C84.2316 444.493 84.4985 444.226 84.8277 444.226C85.1569 444.226 85.4238 444.493 85.4238 444.822C85.4238 445.151 85.1569 445.418 84.8277 445.418Z" fill="#263238"/>
<path d="M81.3995 445.418C81.0703 445.418 80.8034 445.151 80.8034 444.822C80.8034 444.493 81.0703 444.226 81.3995 444.226C81.7287 444.226 81.9956 444.493 81.9956 444.822C81.9956 445.151 81.7287 445.418 81.3995 445.418Z" fill="#263238"/>
<path d="M77.8785 445.508C77.5493 445.508 77.2824 445.241 77.2824 444.912C77.2824 444.583 77.5493 444.316 77.8785 444.316C78.2077 444.316 78.4746 444.583 78.4746 444.912C78.4746 445.241 78.2077 445.508 77.8785 445.508Z" fill="#263238"/>
<path d="M74.4512 445.508C74.122 445.508 73.8551 445.241 73.8551 444.912C73.8551 444.583 74.122 444.316 74.4512 444.316C74.7804 444.316 75.0474 444.583 75.0474 444.912C75.0474 445.241 74.7804 445.508 74.4512 445.508Z" fill="#263238"/>
<path d="M71.1168 445.418C70.7876 445.418 70.5207 445.151 70.5207 444.822C70.5207 444.493 70.7876 444.226 71.1168 444.226C71.446 444.226 71.7129 444.493 71.7129 444.822C71.7129 445.151 71.446 445.418 71.1168 445.418Z" fill="#263238"/>
<path d="M67.8395 445.418C67.5103 445.418 67.2434 445.151 67.2434 444.822C67.2434 444.493 67.5103 444.226 67.8395 444.226C68.1687 444.226 68.4357 444.493 68.4357 444.822C68.4357 445.151 68.1687 445.418 67.8395 445.418Z" fill="#263238"/>
<path d="M69.3295 447.653C69.0003 447.653 68.7334 447.386 68.7334 447.057C68.7334 446.728 69.0003 446.461 69.3295 446.461C69.6587 446.461 69.9257 446.728 69.9257 447.057C69.9257 447.386 69.6587 447.653 69.3295 447.653Z" fill="#263238"/>
<path d="M72.6628 447.743C72.3336 447.743 72.0667 447.476 72.0667 447.147C72.0667 446.818 72.3336 446.551 72.6628 446.551C72.992 446.551 73.2589 446.818 73.2589 447.147C73.2589 447.476 72.992 447.743 72.6628 447.743Z" fill="#263238"/>
<path d="M76.2385 447.743C75.9093 447.743 75.6424 447.476 75.6424 447.147C75.6424 446.818 75.9093 446.551 76.2385 446.551C76.5677 446.551 76.8346 446.818 76.8346 447.147C76.8346 447.476 76.5677 447.743 76.2385 447.743Z" fill="#263238"/>
<path d="M79.6667 447.743C79.3374 447.743 79.0706 447.476 79.0706 447.147C79.0706 446.818 79.3374 446.551 79.6667 446.551C79.9959 446.551 80.2628 446.818 80.2628 447.147C80.2628 447.476 79.9959 447.743 79.6667 447.743Z" fill="#263238"/>
<path d="M83.1892 447.653C82.86 447.653 82.5931 447.386 82.5931 447.057C82.5931 446.728 82.86 446.461 83.1892 446.461C83.5184 446.461 83.7853 446.728 83.7853 447.057C83.7853 447.386 83.5184 447.653 83.1892 447.653Z" fill="#263238"/>
<path d="M86.7649 447.653C86.4356 447.653 86.1688 447.386 86.1688 447.057C86.1688 446.728 86.4356 446.461 86.7649 446.461C87.0941 446.461 87.361 446.728 87.361 447.057C87.361 447.386 87.0941 447.653 86.7649 447.653Z" fill="#263238"/>
<path d="M88.1063 450.337C87.7771 450.337 87.5102 450.07 87.5102 449.741C87.5102 449.411 87.7771 449.144 88.1063 449.144C88.4355 449.144 88.7024 449.411 88.7024 449.741C88.7024 450.07 88.4355 450.337 88.1063 450.337Z" fill="#263238"/>
<path d="M84.8277 450.337C84.4985 450.337 84.2316 450.07 84.2316 449.741C84.2316 449.411 84.4985 449.144 84.8277 449.144C85.1569 449.144 85.4238 449.411 85.4238 449.741C85.4238 450.07 85.1569 450.337 84.8277 450.337Z" fill="#263238"/>
<path d="M81.3995 450.337C81.0703 450.337 80.8034 450.07 80.8034 449.741C80.8034 449.411 81.0703 449.144 81.3995 449.144C81.7287 449.144 81.9956 449.411 81.9956 449.741C81.9956 450.07 81.7287 450.337 81.3995 450.337Z" fill="#263238"/>
<path d="M77.8785 450.427C77.5493 450.427 77.2824 450.16 77.2824 449.831C77.2824 449.502 77.5493 449.235 77.8785 449.235C78.2077 449.235 78.4746 449.502 78.4746 449.831C78.4746 450.16 78.2077 450.427 77.8785 450.427Z" fill="#263238"/>
<path d="M74.4512 450.427C74.122 450.427 73.8551 450.16 73.8551 449.831C73.8551 449.502 74.122 449.235 74.4512 449.235C74.7804 449.235 75.0474 449.502 75.0474 449.831C75.0474 450.16 74.7804 450.427 74.4512 450.427Z" fill="#263238"/>
<path d="M71.1168 450.337C70.7876 450.337 70.5207 450.07 70.5207 449.741C70.5207 449.411 70.7876 449.144 71.1168 449.144C71.446 449.144 71.7129 449.411 71.7129 449.741C71.7129 450.07 71.446 450.337 71.1168 450.337Z" fill="#263238"/>
<path d="M67.8395 450.337C67.5103 450.337 67.2434 450.07 67.2434 449.741C67.2434 449.411 67.5103 449.144 67.8395 449.144C68.1687 449.144 68.4357 449.411 68.4357 449.741C68.4357 450.07 68.1687 450.337 67.8395 450.337Z" fill="#263238"/>
<path d="M69.3295 452.572C69.0003 452.572 68.7334 452.305 68.7334 451.976C68.7334 451.647 69.0003 451.38 69.3295 451.38C69.6587 451.38 69.9257 451.647 69.9257 451.976C69.9257 452.305 69.6587 452.572 69.3295 452.572Z" fill="#263238"/>
<path d="M72.6628 452.662C72.3336 452.662 72.0667 452.396 72.0667 452.066C72.0667 451.737 72.3336 451.47 72.6628 451.47C72.992 451.47 73.2589 451.737 73.2589 452.066C73.2589 452.396 72.992 452.662 72.6628 452.662Z" fill="#263238"/>
<path d="M76.2385 452.662C75.9093 452.662 75.6424 452.396 75.6424 452.066C75.6424 451.737 75.9093 451.47 76.2385 451.47C76.5677 451.47 76.8346 451.737 76.8346 452.066C76.8346 452.396 76.5677 452.662 76.2385 452.662Z" fill="#263238"/>
<path d="M79.6667 452.662C79.3374 452.662 79.0706 452.396 79.0706 452.066C79.0706 451.737 79.3374 451.47 79.6667 451.47C79.9959 451.47 80.2628 451.737 80.2628 452.066C80.2628 452.396 79.9959 452.662 79.6667 452.662Z" fill="#263238"/>
<path d="M83.1892 452.572C82.86 452.572 82.5931 452.305 82.5931 451.976C82.5931 451.647 82.86 451.38 83.1892 451.38C83.5184 451.38 83.7853 451.647 83.7853 451.976C83.7853 452.305 83.5184 452.572 83.1892 452.572Z" fill="#263238"/>
<path d="M86.7649 452.572C86.4356 452.572 86.1688 452.305 86.1688 451.976C86.1688 451.647 86.4356 451.38 86.7649 451.38C87.0941 451.38 87.361 451.647 87.361 451.976C87.361 452.305 87.0941 452.572 86.7649 452.572Z" fill="#263238"/>
<path d="M572.745 332.903V347.209H493.909V559.425H486.607V347.209L157.105 348.849V559.425H149.952V348.402L99.1335 348.849V331.71L572.745 332.903Z" fill="#FF8F6B"/>
<path d="M522.225 344.378L491.078 366.732L493.909 369.414L525.205 345.719L522.225 344.378Z" fill="#FF8F6B"/>
<path d="M120.594 346.464L156.808 372.246L154.126 374.78L117.763 347.805L120.594 346.464Z" fill="#FF8F6B"/>
<path d="M376.474 327.686H457.993V333.647H376.474V327.686Z" fill="#263238"/>
</svg>
